<?xml version="1.0" ?><!DOCTYPE svg  PUBLIC '-//W3C//DTD SVG 1.1//EN'  'http://www.w3.org/Graphics/SVG/1.1/DTD/svg11.dtd'><svg enable-background="new 0 0 512 512" height="512px" id="Layer_1" version="1.1" viewBox="0 0 512 512" width="512px" xml:space="preserve" xmlns="http://www.w3.org/2000/svg" xmlns:xlink="http://www.w3.org/1999/xlink"><path d="M13.607,477.311c-5.833,5.833-5.863,15.35-0.065,21.147s15.314,5.768,21.148-0.065l52.579-52.578  c5.833-5.833,10.606-12.979,10.606-15.877s-2.372-7.643-5.271-10.542s-7.643-5.271-10.542-5.271s-10.043,4.773-15.877,10.606  L13.607,477.311z" fill="#0776B7"/><path d="M118.958,213.833l-84.333,84.333c-14.187,14.187-21.188,29.134-21.083,47.839  c0.103,18.438,7.104,43.599,21.083,57.577l73.792,73.792c14.083,14.095,39.408,21.083,57.979,21.083  c18.571,0,33.354-7,47.438-21.083l84.332-84.333L118.958,213.833z" fill="#0776B7"/><path d="M294.296,399.702c-2.615,2.625-6.444,3.871-11.221,3.881c-22.176,0.042-65.207-26.766-106.55-68.107  c-41.343-41.345-68.13-84.375-68.108-106.55c0.01-4.776,1.256-8.596,3.892-11.221c2.615-2.615,6.424-3.871,11.2-3.871  c22.175-0.03,65.206,26.767,106.549,68.12c41.261,41.239,68.006,84.158,68.108,106.374  C298.188,393.186,296.952,397.057,294.296,399.702z" fill="#7EBDDC"/><polygon fill="#FBAD3E" points="150.583,256 171.667,277.083 234.917,213.833 213.833,192.75 "/><polygon fill="#FBAD3E" points="224.375,329.792 245.458,350.875 308.707,287.625 287.625,266.542 "/><path d="M498.394,34.689c5.833-5.833,5.862-15.35,0.064-21.148s-15.315-5.769-21.148,0.065l-52.578,52.579  c-5.833,5.833-10.606,12.978-10.606,15.877s2.372,7.643,5.271,10.542s7.643,5.271,10.541,5.271s10.044-4.773,15.877-10.606  L498.394,34.689z" fill="#0776B7"/><path d="M393.041,298.167l84.334-84.333c14.186-14.186,21.187-29.134,21.082-47.839  c-0.103-18.438-7.103-43.598-21.082-57.578l-73.793-73.792c-14.082-14.093-39.406-21.083-57.979-21.083s-33.354,7-47.438,21.083  l-84.333,84.333L393.041,298.167z" fill="#0776B7"/><path d="M213.833,118.958c0,0,5.765,0.011,10.542,0c22.194-0.042,69.756,16.225,111.1,57.567  c41.343,41.343,57.588,88.915,57.566,111.099c0,4.776,0,10.542,0,10.542s0.228,0-4.551,0c-22.175,0.03-65.206-26.767-106.549-68.12  c-41.239-41.239-68.108-84.157-68.108-106.374C213.833,118.958,213.833,118.958,213.833,118.958z" fill="#0776B7"/></svg>