<?xml version="1.0" encoding="UTF-8" standalone="no"?>
<svg
   xmlns:dc="http://purl.org/dc/elements/1.1/"
   xmlns:cc="http://creativecommons.org/ns#"
   xmlns:rdf="http://www.w3.org/1999/02/22-rdf-syntax-ns#"
   xmlns:svg="http://www.w3.org/2000/svg"
   xmlns="http://www.w3.org/2000/svg"
   xmlns:sodipodi="http://sodipodi.sourceforge.net/DTD/sodipodi-0.dtd"
   xmlns:inkscape="http://www.inkscape.org/namespaces/inkscape"
   height="128"
   version="1.1"
   viewBox="0 0 128 128"
   width="128"
   id="svg2"
   inkscape:version="0.91 r13725"
   sodipodi:docname="ol_flush_red_broom.svg">
  <metadata
     id="metadata21">
    <rdf:RDF>
      <cc:Work
         rdf:about="">
        <dc:format>image/svg+xml</dc:format>
        <dc:type
           rdf:resource="http://purl.org/dc/dcmitype/StillImage" />
        <dc:title />
      </cc:Work>
    </rdf:RDF>
  </metadata>
  <sodipodi:namedview
     pagecolor="#ffffff"
     bordercolor="#666666"
     borderopacity="1"
     objecttolerance="10"
     gridtolerance="10"
     guidetolerance="10"
     inkscape:pageopacity="0"
     inkscape:pageshadow="2"
     inkscape:window-width="1920"
     inkscape:window-height="975"
     id="namedview19"
     showgrid="false"
     inkscape:zoom="2.3137255"
     inkscape:cx="66.694915"
     inkscape:cy="50.135593"
     inkscape:window-x="1680"
     inkscape:window-y="27"
     inkscape:window-maximized="1"
     inkscape:current-layer="svg2" />
  <desc
     id="desc6" />
  <defs
     id="defs8" />
  <g
     id="1.Interfaces"
     style="fill:none;fill-rule:evenodd;stroke:#dddddd;stroke-width:1;stroke-linecap:round;stroke-linejoin:round;stroke-opacity:1"
     transform="matrix(1.1674693,0,0,1.2024952,3.7050719,2.6904015)">
    <g
       id="Interfaces-(Color)"
       transform="translate(-1898,-502)"
       style="stroke:#dddddd;stroke-width:3.5;stroke-opacity:1">
      <g
         id="30-interface-broom-clean"
         transform="translate(1900,504)"
         style="stroke:#dddddd;stroke-opacity:1">
        <path
           d="m 49.232698,42.570423 c 1.158781,-1.182434 3.26346,-1.479283 4.73716,-0.759546 0,0 -1.465549,-0.611075 0.905353,0.399763 6.241206,2.66095 20.780287,6.988296 44.054978,3.315952 0.167557,1.56597 2.967661,13.097649 -10.354192,31.182578 C 75.254139,94.794098 54.19807,97.963183 54.19807,97.963183 c 0,0 -6.589378,-8.34985 -10.359296,-19.790813 -3.769918,-11.440963 -5.168485,-21.349001 -5.168485,-21.349001 -0.27017,-1.643468 0.456512,-3.940763 1.608972,-5.116748 l 8.953437,-9.136198 0,0 z"
           id="Layer-1"
           inkscape:connector-curvature="0"
           style="fill:#ff0000;stroke:#dddddd;stroke-opacity:1" />
        <path
           d="M 79.751799,84.515232 C 72.902808,80.885913 69.306931,75.773196 69.306931,75.773196"
           id="Layer-2"
           inkscape:connector-curvature="0"
           style="stroke:#dddddd;stroke-opacity:1" />
        <path
           d="M 90.511874,73.417124 C 82.528999,72.251131 77.227723,67.690722 77.227723,67.690722"
           id="Layer-3"
           inkscape:connector-curvature="0"
           style="stroke:#dddddd;stroke-opacity:1" />
        <path
           d="M 97.808536,59.009363 C 90.211653,59.432134 84.158416,56.57732 84.158416,56.57732"
           id="Layer-4"
           inkscape:connector-curvature="0"
           style="stroke:#dddddd;stroke-opacity:1" />
        <path
           d="M 67.747815,92.501017 C 62.375754,88.176124 59.405941,82.845361 59.405941,82.845361"
           id="Layer-5"
           inkscape:connector-curvature="0"
           style="stroke:#dddddd;stroke-opacity:1" />
        <path
           d="M 1.5169286,9.030992 C -0.50783737,6.9648958 -0.50356223,3.6107296 1.5172742,1.5486431 l 0,0 C 3.542231,-0.51764791 6.8282601,-0.51466283 8.8499459,1.5482904 L 49.181887,42.703502 41.84887,50.186204 1.5169286,9.030992 l 0,0 z"
           id="Layer-6"
           inkscape:connector-curvature="0"
           style="stroke:#dddddd;stroke-opacity:1" />
      </g>
    </g>
  </g>
</svg>
