<?xml version="1.0" encoding="UTF-8" standalone="no"?>
<svg
   xmlns:dc="http://purl.org/dc/elements/1.1/"
   xmlns:cc="http://creativecommons.org/ns#"
   xmlns:rdf="http://www.w3.org/1999/02/22-rdf-syntax-ns#"
   xmlns:svg="http://www.w3.org/2000/svg"
   xmlns="http://www.w3.org/2000/svg"
   xmlns:sodipodi="http://sodipodi.sourceforge.net/DTD/sodipodi-0.dtd"
   xmlns:inkscape="http://www.inkscape.org/namespaces/inkscape"
   height="128px"
   id="Layer_1"
   style="enable-background:new 0 0 128 128;"
   version="1.1"
   viewBox="0 0 128 128"
   width="128px"
   xml:space="preserve"
   inkscape:version="0.91 r13725"
   sodipodi:docname="ol_new_tab.svg"><metadata
     id="metadata4387"><rdf:RDF><cc:Work
         rdf:about=""><dc:format>image/svg+xml</dc:format><dc:type
           rdf:resource="http://purl.org/dc/dcmitype/StillImage" /></cc:Work></rdf:RDF></metadata><defs
     id="defs4385" /><sodipodi:namedview
     pagecolor="#ffffff"
     bordercolor="#666666"
     borderopacity="1"
     objecttolerance="10"
     gridtolerance="10"
     guidetolerance="10"
     inkscape:pageopacity="0"
     inkscape:pageshadow="2"
     inkscape:window-width="2560"
     inkscape:window-height="1311"
     id="namedview4383"
     showgrid="false"
     inkscape:zoom="6.2890625"
     inkscape:cx="34.345342"
     inkscape:cy="64"
     inkscape:window-x="1920"
     inkscape:window-y="27"
     inkscape:window-maximized="1"
     inkscape:current-layer="Layer_1" /><path
     d="M122.343,128l-14.228-14.228  c2.332-1.377,4.28-3.325,5.657-5.657L128,122.343V128H122.343z M116,100c0-1.384-0.194-2.719-0.525-4H128v8h-12.524  C115.806,102.719,116,101.384,116,100z M108.115,86.228L122.343,72H128v5.657l-14.228,14.228  C112.395,89.553,110.447,87.605,108.115,86.228z M112,64l0-40H40V8L8,8l0,104h56v8H0V0l48,0v16h8V0h48v16h16v48H112z M91.885,86.228  c-2.332,1.377-4.28,3.325-5.657,5.657L72,77.657V72h5.657L91.885,86.228z M72,104v-8h12.524C84.194,97.281,84,98.616,84,100  c0,1.384,0.194,2.719,0.524,4H72z M91.885,113.772L77.657,128H72v-5.657l14.228-14.228  C87.605,110.447,89.553,112.395,91.885,113.772z M96,84.524V72h8v12.524c-1.281-0.33-2.616-0.524-4-0.524  C98.616,84,97.281,84.194,96,84.524z M112,100c0,6.627-5.373,12-12,12c-6.627,0-12-5.373-12-12s5.373-12,12-12  C106.627,88,112,93.373,112,100z M100,92c-4.418,0-8,3.582-8,8s3.582,8,8,8s8-3.582,8-8S104.418,92,100,92z M104,115.476V128h-8  v-12.524c1.281,0.33,2.616,0.524,4,0.524C101.384,116,102.719,115.806,104,115.476z"
     style="fill-rule:evenodd;clip-rule:evenodd;fill:#ffffff;fill-opacity:1"
     id="path4381" /></svg>