<?xml version="1.0" ?><!DOCTYPE svg  PUBLIC '-//W3C//DTD SVG 1.1//EN'  'http://www.w3.org/Graphics/SVG/1.1/DTD/svg11.dtd'><svg enable-background="new 0 0 32 32" height="32px" id="Layer_1" version="1.1" viewBox="0 0 32 32" width="32px" xml:space="preserve" xmlns="http://www.w3.org/2000/svg" xmlns:cc="http://creativecommons.org/ns#" xmlns:dc="http://purl.org/dc/elements/1.1/" xmlns:inkscape="http://www.inkscape.org/namespaces/inkscape" xmlns:rdf="http://www.w3.org/1999/02/22-rdf-syntax-ns#" xmlns:sodipodi="http://sodipodi.sourceforge.net/DTD/sodipodi-0.dtd" xmlns:svg="http://www.w3.org/2000/svg" xmlns:xlink="http://www.w3.org/1999/xlink"><g><polygon fill="#553981" points="16,5 16,28 19,28 19,18 32,5  "/><polygon fill="#9365B6" points="0,5 13,18 13,28 16,28 16,5  "/></g><g><path d="M24,16v16c4.4,0,8-3.6,8-8S28.4,16,24,16z" fill="#B6312E"/><path d="M16,24c0,4.4,3.6,8,8,8V16C19.6,16,16,19.6,16,24z" fill="#DF4937"/><polyline fill="#D0D4D7" points="24,25.3 27.7,29 29,27.7 25.3,24 29,20.3 27.7,19 24,22.7  "/><polyline fill="#FFFFFF" points="24,22.7 20.3,19 19,20.3 22.7,24 19,27.7 20.3,29 24,25.3  "/></g></svg>