<?xml version="1.0" ?><svg height="60px" id="Layer_1" style="enable-background:new 0 0 60 60;" version="1.1" viewBox="0 0 60 60" width="60px" xml:space="preserve" xmlns="http://www.w3.org/2000/svg" xmlns:xlink="http://www.w3.org/1999/xlink"><style type="text/css">
	.st0{fill:#6C7FE0;}
	.st1{fill:#D9E3E6;}
	.st2{fill:#FFD48A;}
	.st3{fill:#6ED4BF;}
	.st4{fill:#FFBE4D;}
	.st5{fill:#7789E0;}
	.st6{fill:#96B8F2;}
	.st7{fill:#9EC2FF;}
	.st8{fill:#FFFFFF;}
	.st9{fill:#C5D7DB;}
	.st10{fill:#FA4E70;}
	.st11{fill:#3CC2A7;}
	.st12{fill-rule:evenodd;clip-rule:evenodd;fill:#FA4E70;}
	.st13{fill:#32A18A;}
	.st14{fill:#676785;}
	.st15{fill:#F08F1A;}
	.st16{fill:#383128;}
	.st17{fill:#FFE063;}
	.st18{fill:#5B6875;}
	.st19{fill:#C77D48;}
	.st20{fill:#738394;}
</style><g><path class="st4" d="M55,50V13c0-1.1046-0.895401-2-2-2H31c-1.1046028,0-2-0.8954-2-2V7c0-1.1046-0.8954029-2-2-2H13   c-1.1046028,0-2,0.8954-2,2v2c0,1.1046-0.8954029,2-2,2H7c-1.1046023,0-2,0.8954-2,2v37H55z"/><path class="st2" d="M55,18H5v32c0,1.1045685,0.8954306,2,2,2h46c1.1045685,0,2-0.8954315,2-2V18z"/></g></svg>