<svg width="128" height="128" xmlns="http://www.w3.org/2000/svg">
 <title/>

 <g>
  <title>background</title>
  <rect fill="none" id="canvas_background" height="402" width="582" y="-1" x="-1"/>
 </g>
 <g>
  <title>Layer 1</title>
  <path id="svg_2" fill="#cccccc" d="m40.46974,59.86139l0,-22.00739a23.53483,23.53483 0 1 1 47.06967,0l0,22.00739l14.31913,0l0,-22.00739a37.854,37.854 0 1 0 -75.70793,0l0,22.00739l14.31913,0z"/>
  <path id="svg_3" fill=" #c4c6c8" d="m59.23155,14.31913a23.5615,23.5615 0 0 0 -23.53486,23.53487l0,22.00739l4.773,0l0,-22.00739a23.568,23.568 0 0 1 21.14839,-23.41437a23.6851,23.6851 0 0 0 -2.38653,-0.1205z"/>
  <path id="svg_4" fill="#7f7f7f" d="m64.0046,0c-0.80236,0 -1.59657,0.03333 -2.38652,0.0825a37.85045,37.85045 0 0 1 35.46741,37.7715l0,22.00739l4.773,0l0,-22.00739a37.85394,37.85394 0 0 0 -37.85389,-37.854z"/>
  <rect id="svg_5" fill="#ff5656" y="56.12536" x="16.00002" width="95.99995" ry="7.19841" rx="7.19841" height="71.8746"/>
  <path id="svg_6" fill="#bf0000" d="m105.18157,56.12527l-1.38774,0a8.98775,8.98775 0 0 1 1.34256,4.76587l0.00005,62.343a8.98775,8.98775 0 0 1 -1.34255,4.76586l1.38774,0c3.76566,0 6.81837,-3.40259 6.81837,-7.59973l0,-56.67539c0,-4.19702 -3.05271,-7.59961 -6.81843,-7.59961z"/>
  <path id="svg_7" fill=" #4f5144" d="m76.14594,84.99851a12.14584,12.14584 0 1 0 -18.74328,10.09559a3.81881,3.81881 0 0 1 1.77755,3.20907l0,9.98783a2.878,2.878 0 0 0 2.89189,2.86383l3.8559,0a2.878,2.878 0 0 0 2.89189,-2.86383l0,-9.98763a3.74378,3.74378 0 0 1 1.7174,-3.17094a11.985,11.985 0 0 0 5.60865,-10.13392z"/>
 </g>
</svg>