<?xml version="1.0" ?><!DOCTYPE svg  PUBLIC '-//W3C//DTD SVG 1.1//EN'  'http://www.w3.org/Graphics/SVG/1.1/DTD/svg11.dtd'><svg enable-background="new 0 0 64 64" height="64px" id="Layer_1" version="1.1" viewBox="0 0 64 64" width="64px" xml:space="preserve" xmlns="http://www.w3.org/2000/svg" xmlns:xlink="http://www.w3.org/1999/xlink"><g id="Rectangle_60"><g><path d="M57,1H1v62h62V7L57,1z M9,59H5v-4h4V59z" fill="#93D2F3"/></g></g><g id="Rectangle_61"><g><path d="M12,31v32h39V31H12z M44,5h-4v12h4V5z" fill="#FFFFFF"/></g></g><g id="Rectangle_106"><g><rect fill="#DFEBF8" height="20" width="27" x="21" y="1"/></g></g><g id="Rectangle_62"><g><path d="M21,1H11v20h10V1z M44,5h-4v12h4V5z M13,59v4h39v-4H13z" fill="#5996D0"/></g></g><g id="Rounded_Rectangle_67"><g><path d="M39,18h6V4h-6V18z M41,6h2v10h-2V6z M4,60h6v-6H4V60z M6,56h2v2H6V56z M58,0H2C0.896,0,0,0.896,0,2v60    c0,1.104,0.896,2,2,2h60c1.104,0,2-0.896,2-2V6C64,6,61.2,3.2,58,0z M22,2h25v18H22V2z M12,2h8v18h-8V2z M51,62H14v-2h37V62z     M51,58H14V32h37V58z M62,62h-9V32c0-1.104-0.896-2-2-2H14c-1.104,0-2,0.896-2,2v30H2V2h8v20h39V2h8l5,5V62z M19,48h27    c0.553,0,1-0.448,1-1c0-0.553-0.447-1-1-1H19c-0.553,0-1,0.447-1,1C18,47.552,18.447,48,19,48z M19,43h27c0.553,0,1-0.448,1-1    c0-0.553-0.447-1-1-1H19c-0.553,0-1,0.447-1,1C18,42.552,18.447,43,19,43z M19,38h27c0.553,0,1-0.448,1-1c0-0.553-0.447-1-1-1H19    c-0.553,0-1,0.447-1,1C18,37.552,18.447,38,19,38z M19,53h27c0.553,0,1-0.448,1-1c0-0.553-0.447-1-1-1H19c-0.553,0-1,0.447-1,1    C18,52.552,18.447,53,19,53z" fill="#2B3139"/></g></g></svg>