<?xml version="1.0" ?><svg style="enable-background:new 0 0 48 48;" version="1.1" viewBox="0 0 48 48" xml:space="preserve" xmlns="http://www.w3.org/2000/svg" xmlns:xlink="http://www.w3.org/1999/xlink"><g id="Icons"><g><path d="M29.62625,10.34554h-10.9213l0,0c0-2.32126,1.8818-4.20303,4.2031-4.20303h2.51511    C27.74445,6.14251,29.62625,8.02427,29.62625,10.34554L29.62625,10.34554z" style="fill:#C6C6C6;"/><path d="M39.3302,13.56231H8.6698l0,0c0-1.7648,1.4307-3.1955,3.1955-3.1955h24.2694    C37.8995,10.36681,39.3302,11.79751,39.3302,13.56231L39.3302,13.56231z" style="fill:#FFFFFF;"/><path d="M33.9597,41.83622H14.2425c-1.3353,0-2.4176-1.0824-2.4176-2.4176v-25.8563h24.5525v25.8562    C36.3774,40.75381,35.29501,41.83622,33.9597,41.83622z" style="fill:#F43735;"/><path d="    M36.3774,13.56231v25.8562c0,1.3353-1.08239,2.4177-2.4177,2.4177H14.2425c-1.3353,0-2.4176-1.0824-2.4176-2.4176v-25.8563" style="fill:none;stroke:#303030;stroke-width:0.7;stroke-linecap:round;stroke-linejoin:round;stroke-miterlimit:10;"/><path d="    M39.3302,13.56231H8.6698l0,0c0-1.7648,1.4307-3.1955,3.1955-3.1955h24.2694C37.8995,10.36681,39.3302,11.79751,39.3302,13.56231    L39.3302,13.56231z" style="fill:none;stroke:#303030;stroke-width:0.7;stroke-linecap:round;stroke-linejoin:round;stroke-miterlimit:10;"/><path d="    M18.5798,10.36681L18.5798,10.36681c0-2.32126,1.8818-4.20303,4.2031-4.20303h2.51511c2.32129,0,4.20309,1.88177,4.20309,4.20303    l0,0" style="fill:none;stroke:#303030;stroke-width:0.7;stroke-linecap:round;stroke-linejoin:round;stroke-miterlimit:10;"/><line style="fill:none;stroke:#303030;stroke-width:0.7;stroke-linecap:round;stroke-linejoin:round;stroke-miterlimit:10;" x1="19.1865" x2="19.1865" y1="17.93081" y2="37.46772"/><line style="fill:none;stroke:#303030;stroke-width:0.7;stroke-linecap:round;stroke-linejoin:round;stroke-miterlimit:10;" x1="24.1656" x2="24.1656" y1="17.93081" y2="37.46772"/><line style="fill:none;stroke:#303030;stroke-width:0.7;stroke-linecap:round;stroke-linejoin:round;stroke-miterlimit:10;" x1="29.1448" x2="29.1448" y1="17.93081" y2="37.46772"/></g></g></svg>