<?xml version="1.0" ?><!DOCTYPE svg  PUBLIC '-//W3C//DTD SVG 1.1 Tiny//EN'  'http://www.w3.org/Graphics/SVG/1.1/DTD/svg11-tiny.dtd'><svg baseProfile="tiny" height="512px" id="Layer_1" version="1.1" viewBox="0 0 512 512" width="512px" xml:space="preserve" xmlns="http://www.w3.org/2000/svg" xmlns:xlink="http://www.w3.org/1999/xlink"><rect fill="#FFCA71" height="409" width="335" x="12" y="29"/><path d="M355,445H4V21h351V445z M19,431h321V36H19V431z" fill="#ACACAC"/><g><path d="M90.991,28.839c0-18.295,14.833-18.839,33.12-18.839h121.74c18.288,0,33.114,0.544,33.114,18.839l0,0   c0,18.295-14.826,33.161-33.114,33.161h-121.74C105.823,62,90.991,47.134,90.991,28.839L90.991,28.839z" fill="#FFFFFF"/><path d="M245.851,71h-121.74c-23.393,0-42.428-18.769-42.428-42.161C81.683,0.732,107.215,1,124.111,1h121.74   c16.896,0,42.428-0.268,42.428,27.839C288.279,52.231,269.244,71,245.851,71z M124.111,19c-22.658,0-23.812,2.29-23.812,9.339   c0,13.127,10.686,23.661,23.812,23.661h121.74c13.126,0,23.812-10.534,23.812-23.661c0-7.049-1.153-9.339-23.812-9.339H124.111z" fill="#0A77B7"/></g><g><polygon fill="#ACACAC" points="188,120 188,511 507,511 507,184.985 441.294,120  "/><polygon fill="#FFFFFF" points="205,136 205,495 490,495 490,193.154 433.14,136  "/><rect fill="#ACACAC" height="16" width="219" x="238" y="226"/><rect fill="#ACACAC" height="16" width="219" x="238" y="422"/><rect fill="#ACACAC" height="17" width="219" x="238" y="356"/><rect fill="#ACACAC" height="16" width="219" x="238" y="291"/><rect fill="#ACACAC" height="65" width="16" x="425" y="136"/><rect fill="#ACACAC" height="16" width="65" x="425" y="185"/></g></svg>