<?xml version="1.0" ?><svg height="104px" version="1.1" viewBox="0 0 104 104" width="104px" xmlns="http://www.w3.org/2000/svg" xmlns:xlink="http://www.w3.org/1999/xlink"><title/><desc/><defs/><g fill="none" fill-rule="evenodd" id="6.Devices" stroke="none" stroke-linecap="round" stroke-linejoin="round" stroke-width="1"><g id="Devices-(Monochrome)" stroke="#1565C0" stroke-width="3.5" transform="translate(-1898.000000, -898.000000)"><g id="50-devices-floppy-save-data-disk-diskette" transform="translate(1900.000000, 900.000000)"><path d="M0,2.99280137 C0,1.33992281 1.34747995,0 3.00283888,0 L82.7823174,0 C84.4407395,0 86.7178319,0.955037773 87.8826054,2.14773836 L97.9025509,12.4079257 C99.06094,13.5940888 100,15.8977905 100,17.5465728 L100,97.0090913 C100,98.6609245 98.6619875,100 97.0071986,100 L2.99280137,100 C1.33992281,100 0,98.6619875 0,97.0071986 L0,2.99280137 Z" fill="#E2F3FB" id="Layer-1"/><rect fill="#FFFFFF" height="50" id="Layer-2" width="60" x="20" y="50"/><rect fill="#FFFFFF" height="30" id="Layer-3" width="50" x="25" y="0"/><path d="M30,85 L70,85" fill="#E2F3FB" id="Layer-4"/><path d="M30,75 L70,75" fill="#E2F3FB" id="Layer-5"/><path d="M30,65 L70,65" fill="#E2F3FB" id="Layer-6"/><rect fill="#E2F3FB" height="16" id="Layer-7" width="8" x="60" y="7"/><path d="M10,10 L10,20" fill="#E2F3FB" id="Layer-8"/></g></g></g></svg>