<?xml version="1.0" encoding="UTF-8" standalone="no"?>
<svg
   xmlns:dc="http://purl.org/dc/elements/1.1/"
   xmlns:cc="http://creativecommons.org/ns#"
   xmlns:rdf="http://www.w3.org/1999/02/22-rdf-syntax-ns#"
   xmlns:svg="http://www.w3.org/2000/svg"
   xmlns="http://www.w3.org/2000/svg"
   xmlns:sodipodi="http://sodipodi.sourceforge.net/DTD/sodipodi-0.dtd"
   xmlns:inkscape="http://www.inkscape.org/namespaces/inkscape"
   height="128"
   version="1.1"
   width="128"
   id="svg2"
   inkscape:version="0.91 r13725"
   sodipodi:docname="ol_clone.svg">
  <metadata
     id="metadata10">
    <rdf:RDF>
      <cc:Work
         rdf:about="">
        <dc:format>image/svg+xml</dc:format>
        <dc:type
           rdf:resource="http://purl.org/dc/dcmitype/StillImage" />
        <dc:title></dc:title>
      </cc:Work>
    </rdf:RDF>
  </metadata>
  <defs
     id="defs8" />
  <sodipodi:namedview
     pagecolor="#ffffff"
     bordercolor="#666666"
     borderopacity="1"
     objecttolerance="10"
     gridtolerance="10"
     guidetolerance="10"
     inkscape:pageopacity="0"
     inkscape:pageshadow="2"
     inkscape:window-width="1920"
     inkscape:window-height="975"
     id="namedview6"
     showgrid="false"
     inkscape:zoom="4.5384615"
     inkscape:cx="33.491525"
     inkscape:cy="52"
     inkscape:window-x="1680"
     inkscape:window-y="27"
     inkscape:window-maximized="1"
     inkscape:current-layer="svg2" />
  <path
     d="m 120.61538,128 c 0,0 -78.769226,0 -78.769226,0 -4.071385,0 -7.384616,-3.31323 -7.384616,-7.38462 0,0 0,-19.6923 0,-19.6923 0,-1.358772 1.10277,-2.461542 2.461539,-2.461542 1.358769,0 2.461538,1.10277 2.461538,2.461542 0,0 0,19.6923 0,19.6923 0,1.35631 1.105231,2.46154 2.461539,2.46154 0,0 78.769226,0 78.769226,0 1.35631,0 2.46154,-1.10523 2.46154,-2.46154 0,0 0,-78.769226 0,-78.769226 0,-1.356308 -1.10523,-2.461539 -2.46154,-2.461539 0,0 -19.6923,0 -19.6923,0 -1.358772,0 -2.461542,-1.102769 -2.461542,-2.461538 0,-1.358769 1.10277,-2.461539 2.461542,-2.461539 0,0 19.6923,0 19.6923,0 4.07139,0 7.38462,3.313231 7.38462,7.384616 0,0 0,78.769226 0,78.769226 C 128,124.68677 124.68677,128 120.61538,128 Z M 86.153846,93.538462 c 0,0 -78.7692306,0 -78.7692306,0 C 3.3132308,93.538462 0,90.225231 0,86.153846 0,86.153846 0,7.3846154 0,7.3846154 0,3.3132308 3.3132308,0 7.3846154,0 c 0,0 78.7692306,0 78.7692306,0 4.071385,0 7.384616,3.3132308 7.384616,7.3846154 0,0 0,78.7692306 0,78.7692306 0,4.071385 -3.313231,7.384616 -7.384616,7.384616 z M 88.615385,7.3846154 c 0,-1.3563077 -1.105231,-2.4615385 -2.461539,-2.4615385 0,0 -78.7692306,0 -78.7692306,0 -1.3563077,0 -2.4615385,1.1052308 -2.4615385,2.4615385 0,0 0,78.7692306 0,78.7692306 0,1.356308 1.1052308,2.461539 2.4615385,2.461539 0,0 78.7692306,0 78.7692306,0 1.356308,0 2.461539,-1.105231 2.461539,-2.461539 0,0 0,-78.7692306 0,-78.7692306 z"
     id="path4"
     inkscape:connector-curvature="0"
     style="fill:#1a1a1a" />
</svg>
