<?xml version="1.0" encoding="UTF-8" standalone="no"?>
<svg
   xmlns:dc="http://purl.org/dc/elements/1.1/"
   xmlns:cc="http://creativecommons.org/ns#"
   xmlns:rdf="http://www.w3.org/1999/02/22-rdf-syntax-ns#"
   xmlns:svg="http://www.w3.org/2000/svg"
   xmlns="http://www.w3.org/2000/svg"
   xmlns:sodipodi="http://sodipodi.sourceforge.net/DTD/sodipodi-0.dtd"
   xmlns:inkscape="http://www.inkscape.org/namespaces/inkscape"
   enable-background="new 0 0 16 16"
   height="256"
   id="Layer_1"
   version="1.0"
   viewBox="0 0 40.96 40.96"
   width="256"
   xml:space="preserve"
   inkscape:version="0.91 r13725"
   sodipodi:docname="ol_database_grey.svg"><metadata
     id="metadata20"><rdf:RDF><cc:Work
         rdf:about=""><dc:format>image/svg+xml</dc:format><dc:type
           rdf:resource="http://purl.org/dc/dcmitype/StillImage" /><dc:title></dc:title></cc:Work></rdf:RDF></metadata><defs
     id="defs18" /><sodipodi:namedview
     pagecolor="#ffffff"
     bordercolor="#666666"
     borderopacity="1"
     objecttolerance="10"
     gridtolerance="10"
     guidetolerance="10"
     inkscape:pageopacity="0"
     inkscape:pageshadow="2"
     inkscape:window-width="2560"
     inkscape:window-height="1311"
     id="namedview16"
     showgrid="false"
     inkscape:zoom="3.7442308"
     inkscape:cx="114.0832"
     inkscape:cy="124.73549"
     inkscape:window-x="1920"
     inkscape:window-y="27"
     inkscape:window-maximized="1"
     inkscape:current-layer="Layer_1" /><path
     style="opacity:1;fill:#cccccc;fill-opacity:1"
     d="M 38.069142,6.1618506 A 17.572466,4.0049064 0 0 1 20.496666,10.166681 17.572466,4.0049064 0 0 1 2.9242243,6.1618506 17.572466,4.0049064 0 0 1 20.496666,2.1569186 17.572466,4.0049064 0 0 1 38.069142,6.1618506 Z"
     id="path4811"
     inkscape:connector-curvature="0" /><path
     style="opacity:1;fill:#cccccc;fill-opacity:1"
     d="M 38.071974,16.52533 A 17.575293,3.9887568 0 0 1 20.496664,20.514082 17.575293,3.9887568 0 0 1 2.9213927,16.52533 17.575293,3.9887568 0 0 1 20.496664,12.536579 17.575293,3.9887568 0 0 1 38.071974,16.52533 Z"
     id="path4811-3"
     inkscape:connector-curvature="0" /><path
     style="opacity:1;fill:#cccccc;fill-opacity:1"
     d="M 38.069003,27.198176 A 17.594513,4.280287 0 0 1 20.47452,31.478456 17.594513,4.280287 0 0 1 2.88,27.198176 a 17.594513,4.280287 0 0 1 17.59452,-4.28028 17.594513,4.280287 0 0 1 17.594483,4.28028 z"
     id="path4811-6"
     inkscape:connector-curvature="0" /><path
     style="fill:#808080;fill-opacity:1;stroke:none;stroke-opacity:1"
     inkscape:connector-curvature="0"
     id="path10"
     d="m 2.9133666,6.3344824 0,6.2273046 c 0,2.866872 7.8723224,5.193671 17.5833164,5.193671 9.710993,0 17.583317,-2.326799 17.583317,-5.193671 l 0,-6.2273046 C 33.061197,9.824645 22.079179,9.9648816 20.499214,9.9648816 c -1.580001,0 -12.5620204,-0.1402281 -17.5858474,-3.6303992" /><path
     style="fill:#808080;fill-opacity:1;stroke:none;stroke-opacity:1"
     inkscape:connector-curvature="0"
     id="path10-3"
     d="m 2.9133666,16.699673 0,6.227305 c 0,2.866871 7.8723224,5.193669 17.5833164,5.193669 9.710993,0 17.583317,-2.326798 17.583317,-5.193669 l 0,-6.227305 c -5.018803,3.490163 -16.000821,3.630399 -17.580786,3.630399 -1.580001,0 -12.5620204,-0.140228 -17.585847,-3.630399" /><path
     style="fill:#808080;fill-opacity:1;stroke:none;stroke-opacity:1"
     inkscape:connector-curvature="0"
     id="path10-6"
     d="m 2.9133675,27.382107 0,6.227303 c 0,2.866871 7.8723215,5.193671 17.5833155,5.193671 9.710993,0 17.583317,-2.3268 17.583317,-5.193671 l 0,-6.227303 c -5.018803,3.490162 -16.000821,3.630399 -17.580786,3.630399 -1.58,0 -12.5620198,-0.140228 -17.5858465,-3.630399" /></svg>