<?xml version="1.0" encoding="UTF-8" standalone="no"?>
<svg
   xmlns:dc="http://purl.org/dc/elements/1.1/"
   xmlns:cc="http://creativecommons.org/ns#"
   xmlns:rdf="http://www.w3.org/1999/02/22-rdf-syntax-ns#"
   xmlns:svg="http://www.w3.org/2000/svg"
   xmlns="http://www.w3.org/2000/svg"
   xmlns:sodipodi="http://sodipodi.sourceforge.net/DTD/sodipodi-0.dtd"
   xmlns:inkscape="http://www.inkscape.org/namespaces/inkscape"
   id="Layer_1"
   version="1.1"
   viewBox="0 0 128 128"
   xml:space="preserve"
   inkscape:version="0.91 r13725"
   sodipodi:docname="outline_padlock_unlocked.svg"
   width="128"
   height="128"><metadata
     id="metadata13"><rdf:RDF><cc:Work
         rdf:about=""><dc:format>image/svg+xml</dc:format><dc:type
           rdf:resource="http://purl.org/dc/dcmitype/StillImage" /><dc:title></dc:title></cc:Work></rdf:RDF></metadata><defs
     id="defs11" /><sodipodi:namedview
     pagecolor="#ffffff"
     bordercolor="#666666"
     borderopacity="1"
     objecttolerance="10"
     gridtolerance="10"
     guidetolerance="10"
     inkscape:pageopacity="0"
     inkscape:pageshadow="2"
     inkscape:window-width="1920"
     inkscape:window-height="975"
     id="namedview9"
     showgrid="false"
     inkscape:zoom="4.9166667"
     inkscape:cx="30.915254"
     inkscape:cy="56.135593"
     inkscape:window-x="1680"
     inkscape:window-y="27"
     inkscape:window-maximized="1"
     inkscape:current-layer="Layer_1" /><g
     id="g3"
     transform="matrix(2.9239766,0,0,2.6666667,-6.1754385,-1.6e-6)"><path
       d="m 38,19.2 -23.5,0 0,-7.7 C 14.5,6.2 18.8,2 24,2 c 5.2,0 9.5,4.2 9.5,9.5 l 0,2.6 c 0,0.6 0.4,1 1,1 0.6,0 1,-0.4 1,-1 l 0,-2.6 C 35.5,5.1 30.3,0 24,0 17.7,0 12.5,5.1 12.5,11.5 l 0,7.7 -2.5,0 c -1.7,0 -3.1,1.4 -3.1,3 l 0,22.7 C 7,46.6 8.4,48 10,48 l 28,0 c 1.7,0 3.1,-1.4 3.1,-3.1 l 0,-22.6 C 41,20.6 39.6,19.2 38,19.2 Z m 1,25.7 C 39,45.5 38.5,46 37.9,46 L 10,46 C 9.5,46 9,45.5 9,44.9 L 9,22.3 c 0,-0.6 0.5,-1 1.1,-1 l 27.9,0 c 0.6,0 1.1,0.5 1.1,1 l 0,22.6 z"
       id="path5"
       inkscape:connector-curvature="0" /><path
       d="m 24,28.6 c -2,0 -3.6,1.6 -3.6,3.6 0,1.6 1.1,3 2.6,3.5 l 0,2 c 0,0.6 0.4,1 1,1 0.6,0 1,-0.4 1,-1 l 0,-2 c 1.5,-0.4 2.6,-1.8 2.6,-3.5 0,-2 -1.6,-3.6 -3.6,-3.6 z m 0,5.2 c -0.9,0 -1.6,-0.7 -1.6,-1.6 0,-0.9 0.7,-1.6 1.6,-1.6 0.9,0 1.6,0.7 1.6,1.6 0,0.9 -0.7,1.6 -1.6,1.6 z"
       id="path7"
       inkscape:connector-curvature="0" /></g></svg>