<?xml version="1.0" encoding="UTF-8" standalone="no"?>
<svg
   xmlns:dc="http://purl.org/dc/elements/1.1/"
   xmlns:cc="http://creativecommons.org/ns#"
   xmlns:rdf="http://www.w3.org/1999/02/22-rdf-syntax-ns#"
   xmlns:svg="http://www.w3.org/2000/svg"
   xmlns="http://www.w3.org/2000/svg"
   xmlns:sodipodi="http://sodipodi.sourceforge.net/DTD/sodipodi-0.dtd"
   xmlns:inkscape="http://www.inkscape.org/namespaces/inkscape"
   enable-background="new 0 0 64 64"
   height="128"
   id="Layer_1"
   version="1.1"
   viewBox="0 0 128 128"
   width="128"
   xml:space="preserve"
   inkscape:version="0.91 r13725"
   sodipodi:docname="ol_save.svg"><metadata
     id="metadata19"><rdf:RDF><cc:Work
         rdf:about=""><dc:format>image/svg+xml</dc:format><dc:type
           rdf:resource="http://purl.org/dc/dcmitype/StillImage" /><dc:title></dc:title></cc:Work></rdf:RDF></metadata><defs
     id="defs17" /><sodipodi:namedview
     pagecolor="#ffffff"
     bordercolor="#666666"
     borderopacity="1"
     objecttolerance="10"
     gridtolerance="10"
     guidetolerance="10"
     inkscape:pageopacity="0"
     inkscape:pageshadow="2"
     inkscape:window-width="1920"
     inkscape:window-height="975"
     id="namedview15"
     showgrid="false"
     inkscape:zoom="3.6875"
     inkscape:cx="41.220339"
     inkscape:cy="32"
     inkscape:window-x="1680"
     inkscape:window-y="27"
     inkscape:window-maximized="1"
     inkscape:current-layer="Layer_1" /><g
     id="g3"
     transform="scale(2,2)"><path
       d="M 50,0 14,0 0,0 0,64 6,64 58,64 64,64 64,12.586 51.414,0 50,0 Z M 48,2 48,19 16,19 16,2 48,2 Z M 8,62 8,32 56,32 56,62 8,62 Z M 62,62 58,62 58,30 6,30 6,62 2,62 2,2 14,2 14,21 50,21 50,2 50.586,2 62,13.414 62,62 Z"
       id="path5"
       inkscape:connector-curvature="0" /><rect
       height="2"
       width="36"
       x="14"
       y="38"
       id="rect7" /><rect
       height="2"
       width="36"
       x="14"
       y="46"
       id="rect9" /><rect
       height="2"
       width="36"
       x="14"
       y="54"
       id="rect11" /><path
       d="m 44,4 -7,0 0,13 7,0 0,-13 z m -2,11 -3,0 0,-9 3,0 0,9 z"
       id="path13"
       inkscape:connector-curvature="0" /></g></svg>