<?xml version="1.0" ?><svg enable-background="new 0 0 515.91 728.5" height="512" id="Layer_1" version="1.1" viewBox="0 0 512.00003 512" width="512" xml:space="preserve" xmlns="http://www.w3.org/2000/svg" xmlns:cc="http://creativecommons.org/ns#" xmlns:dc="http://purl.org/dc/elements/1.1/" xmlns:inkscape="http://www.inkscape.org/namespaces/inkscape" xmlns:rdf="http://www.w3.org/1999/02/22-rdf-syntax-ns#" xmlns:sodipodi="http://sodipodi.sourceforge.net/DTD/sodipodi-0.dtd" xmlns:svg="http://www.w3.org/2000/svg"><defs id="defs7"/><g id="g5801" transform="matrix(0.98961108,0,0,0.98961108,2.6750412,2.6595784)"><path d="m 231,-2.6875 c -13.83095,0.00632 -26.7783,4.2082687 -36.875,12 -10.2327,7.8971 -17.71875,20.133651 -17.71875,34.28125 l 0,8.59375 -107.0625,0 -0.15625,0 c -4.8279,-0.028 -9.3065,1.76075 -12.75,5.15625 -3.4811,3.4327 -5.375,7.95485 -5.375,12.84375 0,4.8888 1.8939,9.3799 5.375,12.8125 3.4436,3.3956 7.922,5.215 12.75,5.1875 0.053,-3e-4 0.10355,7e-4 0.15625,0 l 373.28125,0 c 0.053,7e-4 0.10355,-3e-4 0.15625,0 4.828,0.028 9.3064,-1.7919 12.75,-5.1875 3.4811,-3.4326 5.3749,-7.9237 5.375,-12.8125 -10e-5,-4.8889 -1.8939,-9.41105 -5.375,-12.84375 -3.4436,-3.3955 -7.9221,-5.18375 -12.75,-5.15625 l -0.15625,0 -107.03125,0 0,-8.59375 c 0,-14.147399 -7.48515,-26.38415 -17.71875,-34.28125 -10.1042,-7.7971995 -23.06335,-12 -36.90625,-12 l -49.9375,0 -0.0312,0 z m 0,36.03125 49.96875,0 c 6.3801,0 11.87875,2.1638 14.90625,4.5 3.2415,2.5015 3.6875,4.0503 3.6875,5.75 l 0,8.59375 -87.125,0 0,-8.59375 c 0,-1.6995 0.446,-3.2483 3.6875,-5.75 3.0262,-2.3354 8.4949,-4.5 14.875,-4.5 z m 186.53125,69.46875 c -0.6735,0.023 -1.3349,0.18615 -2,0.28125 l -312.40625,0 -0.15625,0 c -1.509,-0.01 -2.94785,0.26145 -4.34375,0.65625 -1.3261,-0.3584 -2.6608,-0.72295 -4.0625,-0.78125 -4.9938,-0.1991 -9.6786,1.4699 -13.375,5 -3.6587,3.4942 -5.64395,8.29875 -5.34375,13.46875 l -0.03125,0 17.625,356.1875 0,2.21875 0,10 0.6875,0 c 0.3085,4.2937 1.33685,8.96885 3.90625,13.34375 3.1622,5.384 9.7042,11.5 19.4375,11.5 l 277.0625,0 c 9.7333,0 16.2753,-6.1167 19.4375,-11.5 C 416.70155,498.5342 417.7758,493.5093 418,489 l 18.125,-367.125 0.0312,-0.4375 -0.0312,0 C 436.4747,116.3231 434.5839,111.5297 431,108 c -3.6801,-3.6246 -8.3955,-5.3528 -13.4375,-5.1875 -0.011,1e-4 -0.0213,-3e-4 -0.0312,0 z" id="path8351" style="font-size:medium;font-style:normal;font-variant:normal;font-weight:normal;font-stretch:normal;text-indent:0;text-align:start;text-decoration:none;line-height:normal;letter-spacing:normal;word-spacing:normal;text-transform:none;direction:ltr;block-progression:tb;writing-mode:lr-tb;text-anchor:start;baseline-shift:baseline;color:#000000;fill:#464646;fill-opacity:1;fill-rule:nonzero;stroke:none;stroke-width:20.00000191;marker:none;visibility:visible;display:inline;overflow:visible;enable-background:accumulate;font-family:Sans;-inkscape-font-specification:Sans" transform="translate(0,-1.5e-5)"/><path d="m 255.78125,149 c -9.8338,0.1081 -17.8745,7.25475 -17.8125,17.59375 3e-4,0.043 -5e-4,0.082 0,0.125 l 0,283.96875 0,0.125 c -0.04,4.8936 1.9731,9.36635 5.4375,12.65625 3.4946,3.3186 7.88095,4.96875 12.59375,4.96875 4.7129,0 9.09915,-1.65015 12.59375,-4.96875 3.4644,-3.2899 5.44655,-7.76265 5.40625,-12.65625 -3e-4,-0.043 7e-4,-0.082 0,-0.125 l 0,-283.96875 c 6e-4,-0.042 -2e-4,-0.082 0,-0.125 0.026,-4.923 -1.9922,-9.4043 -5.5,-12.6875 -3.5379,-3.3116 -7.97845,-4.95805 -12.71875,-4.90625 z m 93.25,0.3125 c -9.8124,-0.1072 -17.9568,6.8249 -18.1875,17.125 0,0.065 -0.0303,0.1221 -0.0312,0.1875 l 0.0312,0 -8.59375,283.34375 0,0.0312 c -0.2698,10.3846 7.67865,17.71655 17.53125,17.96875 9.8526,0.2523 18.163,-6.58625 18.5,-16.96875 l 0,-0.0312 8.5625,-283.375 0,-0.0625 0,-0.0937 c 0.1818,-4.9353 -1.72135,-9.4821 -5.15625,-12.875 -3.4719,-3.4294 -7.88875,-5.2014 -12.65625,-5.25 z m -186.625,0.0312 c -4.6575,0.1911 -8.93785,1.99595 -12.28125,5.40625 -3.3073,3.3735 -5.14215,7.8637 -4.96875,12.6875 l 0,0.1875 8.5625,283.34375 0.0625,0 c 0.017,4.8358 1.9755,9.28085 5.4375,12.53125 3.5742,3.3558 8.05635,4.99105 12.84375,4.90625 l 0.15625,0 c 4.847,-0.1244 9.3189,-1.99825 12.75,-5.59375 3.2942,-3.452 4.99305,-8.00405 4.71875,-12.84375 l 0.0312,0 -0.0312,-0.59375 -8.5,-282.75 0,-0.1875 -0.0312,0 c -0.1111,-4.9242 -2.24915,-9.3745 -5.84375,-12.5625 -3.6336,-3.2226 -8.1227,-4.71475 -12.875,-4.53125 -0.011,5e-4 -0.0213,-4e-4 -0.0312,0 z" id="path8411" style="font-size:medium;font-style:normal;font-variant:normal;font-weight:normal;font-stretch:normal;text-indent:0;text-align:start;text-decoration:none;line-height:normal;letter-spacing:normal;word-spacing:normal;text-transform:none;direction:ltr;block-progression:tb;writing-mode:lr-tb;text-anchor:start;baseline-shift:baseline;color:#000000;fill:#ffffff;fill-opacity:1;fill-rule:nonzero;stroke:none;stroke-width:20.00000381;marker:none;visibility:visible;display:inline;overflow:visible;enable-background:accumulate;font-family:Sans;-inkscape-font-specification:Sans" transform="translate(0,-1.5e-5)"/><path d="m 256,-2.6875 0,36.03125 24.96875,0 c 6.3801,0 11.87875,2.1638 14.90625,4.5 3.2415,2.5015 3.6875,4.0503 3.6875,5.75 l 0,8.59375 -43.5625,0 0,36 186.625,0 c 0.053,7e-4 0.10355,-3e-4 0.15625,0 4.828,0.028 9.3064,-1.7919 12.75,-5.1875 3.4811,-3.4326 5.3749,-7.9237 5.375,-12.8125 -10e-5,-4.8889 -1.8939,-9.41105 -5.375,-12.84375 -3.4436,-3.3955 -7.9221,-5.18375 -12.75,-5.15625 l -0.15625,0 -107.03125,0 0,-8.59375 c 0,-14.147398 -7.48515,-26.38415 -17.71875,-34.28125 -10.1042,-7.797199 -23.06335,-12 -36.90625,-12 l -24.96875,0 z m 161.53125,105.5 c -0.6735,0.023 -1.3349,0.18615 -2,0.28125 l -159.53125,0 0,411.59375 138.53125,0 c 9.7333,0 16.2753,-6.1167 19.4375,-11.5 C 416.70155,498.5342 417.7758,493.5093 418,489 l 18.125,-367.125 0.0312,-0.4375 -0.0312,0 C 436.4747,116.3231 434.5839,111.5297 431,108 c -3.6801,-3.6246 -8.3955,-5.3528 -13.4375,-5.1875 -0.011,1e-4 -0.0213,-3e-4 -0.0312,0 z" id="rect5791" style="fill:#161616;fill-opacity:1;fill-rule:nonzero;stroke:none" transform="translate(0,-1.5e-5)"/><path d="m 256,149 0,319.4375 c 4.7129,0 9.09915,-1.65015 12.59375,-4.96875 3.4644,-3.2899 5.44655,-7.76265 5.40625,-12.65625 -3e-4,-0.043 7e-4,-0.082 0,-0.125 l 0,-283.96875 c 6e-4,-0.042 -2e-4,-0.082 0,-0.125 0.026,-4.923 -1.9922,-9.4043 -5.5,-12.6875 C 265.01731,150.64633 260.65697,149.00118 256,149 z m 93.03125,0.3125 c -9.8124,-0.1072 -17.9568,6.8249 -18.1875,17.125 0,0.065 -0.0303,0.1221 -0.0312,0.1875 l 0.0312,0 -8.59375,283.34375 0,0.0312 c -0.2698,10.3846 7.67865,17.71655 17.53125,17.96875 9.8526,0.2523 18.163,-6.58625 18.5,-16.96875 l 0,-0.0312 8.5625,-283.375 0,-0.0625 0,-0.0937 c 0.1818,-4.9353 -1.72135,-9.4821 -5.15625,-12.875 -3.4719,-3.4294 -7.88875,-5.2014 -12.65625,-5.25 z" id="rect5796" style="fill:#c4c4c4;fill-opacity:1;fill-rule:nonzero;stroke:none" transform="translate(0,-1.5e-5)"/></g></svg>