<?xml version="1.0" ?><!DOCTYPE svg  PUBLIC '-//W3C//DTD SVG 1.1//EN'  'http://www.w3.org/Graphics/SVG/1.1/DTD/svg11.dtd'><svg enable-background="new 0 0 100 100" height="100px" id="Calque_1" version="1.1" viewBox="0 0 100 100" width="100px" xml:space="preserve" xmlns="http://www.w3.org/2000/svg" xmlns:xlink="http://www.w3.org/1999/xlink"><g id="hourglass"><path d="M80.178,85.067H74.61c-0.67-13.804-7.639-22.366-12.806-28.654l-1.317-1.927c-1.201-1.489-1.865-3.317-1.865-5.085   c0-1.744,0.679-3.647,1.862-5.109l1.38-1.815c5.191-6.279,12.194-14.748,12.867-28.544h5.447c1.19,0,2.156-0.966,2.156-2.156   s-0.966-2.156-2.156-2.156H19.822c-1.19,0-2.156,0.966-2.156,2.156c0,1.19,0.966,2.156,2.156,2.156h6.29   c0.67,13.837,7.657,22.702,12.838,29.033l0.987,1.496c0.955,1.181,1.44,2.914,1.44,5.087c0,2.16-0.487,3.932-1.446,5.119   l-1.123,1.528c-5.16,6.314-12.121,15.046-12.789,28.869h-6.197c-1.19,0-2.156,0.966-2.156,2.156s0.966,2.156,2.156,2.156h60.356   c1.19,0,2.156-0.966,2.156-2.156S81.368,85.067,80.178,85.067z M42.147,58.909l1.138-1.714c1.595-1.974,2.403-4.617,2.403-7.794   c0-3.179-0.808-5.854-2.406-7.823l-0.998-1.36c-5.053-6.176-11.269-12.692-11.871-26.285h40.003   C69.732,25.677,63.561,33.676,58.54,39.75l-1.405,1.998c-1.821,2.248-2.824,5.04-2.824,7.801c0,2.744,1.002,5.572,2.822,7.827   l1.341,1.789c4.999,6.083,11.142,14.151,11.825,25.901H30.324C30.923,71.485,37.114,65.065,42.147,58.909z"/><path d="M62.761,18.958c-0.41-0.455-0.992-0.713-1.602-0.713H38.964c-0.61,0-1.192,0.259-1.602,0.713   c-0.41,0.453-0.606,1.061-0.543,1.666c1.209,11.58,11.511,19.434,11.948,19.762c0.384,0.287,0.839,0.431,1.293,0.431   s0.91-0.144,1.295-0.431c0.438-0.328,10.737-8.182,11.946-19.762C63.367,20.016,63.17,19.411,62.761,18.958z"/></g></svg>