<?xml version="1.0" ?><!DOCTYPE svg  PUBLIC '-//W3C//DTD SVG 1.1//EN'  'http://www.w3.org/Graphics/SVG/1.1/DTD/svg11.dtd'><svg enable-background="new 0 0 64 64" height="64px" id="Layer_1" version="1.1" viewBox="0 0 64 64" width="64px" xml:space="preserve" xmlns="http://www.w3.org/2000/svg" xmlns:xlink="http://www.w3.org/1999/xlink"><path d="M24,41c0,0.553,0.447,1,1,1s1-0.447,1-1s-0.447-1-1-1S24,40.447,24,41z M15,40c-0.552,0-1,0.447-1,1s0.448,1,1,1h6  c0.552,0,1-0.447,1-1s-0.448-1-1-1H15z M30,35c0-0.553-0.448-1-1-1H15c-0.552,0-1,0.447-1,1s0.448,1,1,1h14  C29.552,36,30,35.553,30,35z M44.469,28.41c-0.734-0.855-1.81-1.41-3.023-1.41h-2v2h2c1.103,0,2,0.897,2,2.07V45  c0,1.103-0.897,2-2,2h-2v2h2c1.207,0,2.277-0.549,3.012-1.408C45.194,48.446,46.26,49,47.445,49h2v-2h-2  c-1.057,0-1.973-0.928-2-2.07V31.025c0.027-1.098,0.943-2.025,2-2.025h2v-2h-2C46.266,27,45.206,27.548,44.469,28.41z M29,42h5  c0.553,0,1-0.447,1-1s-0.447-1-1-1h-5c-0.552,0-1,0.447-1,1S28.448,42,29,42z M60,27V13.29c0-2.615-2.127-4.742-4.741-4.742H22.262  c-0.347-0.297-0.633-0.543-0.814-0.7C20.44,6.991,17.62,6.68,15.97,6.68H4.74C2.126,6.68,0,8.807,0,11.42v41.16  c0,2.614,2.126,4.74,4.74,4.74h50.52c2.614,0,4.74-2.126,4.74-4.74V49h4V27H60z M55.259,10.548c1.512,0,2.741,1.23,2.741,2.742  v5.488c-0.014-0.01-0.029-0.017-0.043-0.026c-0.074-0.052-0.155-0.093-0.232-0.141c-0.157-0.096-0.317-0.187-0.486-0.264  c-0.103-0.048-0.206-0.089-0.313-0.129c-0.161-0.061-0.325-0.11-0.494-0.154c-0.109-0.028-0.216-0.059-0.328-0.079  c-0.224-0.041-0.453-0.062-0.687-0.069c-0.054-0.002-0.104-0.016-0.157-0.016H36.55c-1.143,0-2.633-0.391-3.929-0.974  c-0.777-0.351-1.485-0.771-2.005-1.217l-5.528-4.738l-0.493-0.423H55.259z M62,47h-7.55c-0.553,0-1,0.447-1,1s0.447,1,1,1H58v3.58  c0,1.511-1.229,2.74-2.74,2.74H4.74C3.229,55.32,2,54.091,2,52.58V11.42c0-1.511,1.229-2.74,2.74-2.74h11.23  c2.119,0,3.859,0.453,4.167,0.681l2.799,2.399l6.375,5.47c0.622,0.531,1.428,1.017,2.306,1.428c1.597,0.751,3.443,1.244,4.932,1.244  h18.711c0.928,0,1.747,0.466,2.243,1.174C57.813,21.524,58,22.064,58,22.65V27h-3.55c-0.553,0-1,0.448-1,1s0.447,1,1,1H62V47z   M35.45,28c0-0.552-0.447-1-1-1H9v22h25.45c0.553,0,1-0.447,1-1s-0.447-1-1-1H11V29h23.45C35.003,29,35.45,28.552,35.45,28z"/></svg>