<?xml version="1.0" ?><svg height="49px" version="1.1" viewBox="0 0 64 49" width="64px" xmlns="http://www.w3.org/2000/svg" xmlns:sketch="http://www.bohemiancoding.com/sketch/ns" xmlns:xlink="http://www.w3.org/1999/xlink"><title/><desc/><defs/><g fill="none" fill-rule="evenodd" id="Иконки" stroke="none" stroke-width="1"><g id="Artboard-3" transform="translate(-100.000000, -150.000000)"><g id="folder-open" transform="translate(100.000000, 149.000000)"><g id="icon_folder_open"><path d="M2.27373675e-13,4.99922999 C2.27373675e-13,2.79051627 1.79246765,1.00000002 3.99922997,1.00000002 L16.00077,1 C18.2094838,0.999999996 20,2.79246764 20,4.99922996 L20,21 L3.99922997,21 C1.79051625,21 2.27373675e-13,19.2075324 2.27373675e-13,17.00077 L2.27373675e-13,4.99922999 Z" fill="#FFA000" id="Rectangle-1-Copy-8"/><path d="M0,9.00590345 C0,6.79350408 1.79568082,5.00000002 4.0065556,5.00000002 L55.9934444,5 C58.206204,5 60,6.79642476 60,9.00002553 L60,45 L0,46 L0,9.00590345 Z" fill="#FFA000" id="Rectangle-1-Copy-6"/><path d="M3.75051849,24.9412498 C4.12581024,22.7645577 6.22572514,21 8.43659992,21 L60.4234887,21 C62.6362483,21 64.1247986,22.7704253 63.7505185,24.9412498 L60.1095702,46.0587502 C59.7342784,48.2354423 57.6343635,50 55.4234887,50 L3.43659992,50 C1.22384037,50 -0.264709934,48.2295747 0.109570159,46.0587502 L3.75051849,24.9412498 Z" fill="#FFCA28" id="Rectangle-1-Copy-9"/></g></g></g></g></svg>