<?xml version="1.0" ?><svg height="50px" version="1.1" viewBox="0 0 60 50" width="60px" xmlns="http://www.w3.org/2000/svg" xmlns:sketch="http://www.bohemiancoding.com/sketch/ns" xmlns:xlink="http://www.w3.org/1999/xlink"><title/><desc/><defs/><g fill="none" fill-rule="evenodd" id="Иконки" stroke="none" stroke-width="1"><g id="Artboard-3" transform="translate(-20.000000, -150.000000)"><g id="floder-close" transform="translate(20.000000, 150.000000)"><g id="Path-Copy-+-Rectangle-1-Copy-+-Rectangle-1"><path d="M0,3.99922999 C0,1.79051627 1.79246765,2.50658392e-08 3.99922997,2.11727387e-08 L16.00077,4.46702107e-16 C18.2094838,-3.89654261e-09 20,1.79246764 20,3.99922996 L20,20 L3.99922997,20 C1.79051625,20 0,18.2075324 0,16.00077 L0,3.99922999 Z" fill="#FEA01E" id="Path-Copy"/><path d="M0,8.00590345 C0,5.79350408 1.79568082,4.00000002 4.0065556,4.00000002 L55.9934444,4 C58.206204,4 60,5.78808228 60,8.00590344 L60,40.9940966 C60,43.2064959 58.2043192,45 55.9934444,45 L4.0065556,45 C1.79379604,45 0,43.2119177 0,40.9940966 L0,8.00590345 Z" fill="#FFA000" id="Rectangle-1-Copy"/><rect fill="#FFCA28" height="42" id="Rectangle-1" rx="4" width="60" x="0" y="8"/></g></g></g></g></svg>