<?xml version="1.0" ?><!DOCTYPE svg  PUBLIC '-//W3C//DTD SVG 1.1//EN'  'http://www.w3.org/Graphics/SVG/1.1/DTD/svg11.dtd'><svg enable-background="new 0 0 100 100" height="100px" id="Layer_1" version="1.1" viewBox="0 0 100 100" width="100px" xml:space="preserve" xmlns="http://www.w3.org/2000/svg" xmlns:xlink="http://www.w3.org/1999/xlink"><path d="M74.353,28.694c-9.432,0-16.266,7.096-22.286,13.475l5.571,5.752c5.212-5.524,10.602-11.227,16.715-11.227  c7.337,0,13.307,5.969,13.307,13.306s-5.97,13.306-13.307,13.306c-6.508,0-12.15-6.094-17.605-11.987  c-0.038-0.04-0.074-0.079-0.111-0.119l-1.726-1.782l-4.903-5.063c-0.59-0.615-1.186-1.244-1.797-1.893  c-6.087-6.452-12.987-13.767-22.562-13.767C13.899,28.694,4.341,38.252,4.341,50s9.558,21.306,21.306,21.306  c9.365,0,16.509-7.07,22.308-13.293l-5.577-5.752c-5.186,5.584-10.57,11.045-16.731,11.045c-7.337,0-13.306-5.969-13.306-13.306  s5.969-13.306,13.306-13.306c6.124,0,11.522,5.723,16.743,11.257c0.195,0.206,0.396,0.415,0.592,0.624l1.298,1.338l-0.022,0.021  l1.376,1.375l4.362,4.499c0.294,0.316,0.579,0.62,0.88,0.945c6.003,6.483,13.473,14.552,23.477,14.552  c11.748,0,21.307-9.558,21.307-21.306S86.101,28.694,74.353,28.694z"/></svg>