<?xml version="1.0" encoding="UTF-8" standalone="no"?>
<!-- Generator: Adobe Illustrator 18.1.1, SVG Export Plug-In . SVG Version: 6.00 Build 0)  -->

<svg
   xmlns:dc="http://purl.org/dc/elements/1.1/"
   xmlns:cc="http://creativecommons.org/ns#"
   xmlns:rdf="http://www.w3.org/1999/02/22-rdf-syntax-ns#"
   xmlns:svg="http://www.w3.org/2000/svg"
   xmlns="http://www.w3.org/2000/svg"
   xmlns:sodipodi="http://sodipodi.sourceforge.net/DTD/sodipodi-0.dtd"
   xmlns:inkscape="http://www.inkscape.org/namespaces/inkscape"
   version="1.0"
   id="Layer_1"
   x="0px"
   y="0px"
   viewBox="0 0 48 48"
   enable-background="new 0 0 48 48"
   xml:space="preserve"
   width="96"
   height="96"
   style="fill: rgb(52, 73, 94);"
   inkscape:version="0.91 r13725"
   sodipodi:docname="ol_key.svg"><metadata
     id="metadata15"><rdf:RDF><cc:Work
         rdf:about=""><dc:format>image/svg+xml</dc:format><dc:type
           rdf:resource="http://purl.org/dc/dcmitype/StillImage" /><dc:title></dc:title></cc:Work></rdf:RDF></metadata><defs
     id="defs13" /><sodipodi:namedview
     pagecolor="#ffffff"
     bordercolor="#666666"
     borderopacity="1"
     objecttolerance="10"
     gridtolerance="10"
     guidetolerance="10"
     inkscape:pageopacity="0"
     inkscape:pageshadow="2"
     inkscape:window-width="2560"
     inkscape:window-height="1311"
     id="namedview11"
     showgrid="false"
     inkscape:zoom="4.9166667"
     inkscape:cx="5.4915254"
     inkscape:cy="48"
     inkscape:window-x="1920"
     inkscape:window-y="27"
     inkscape:window-maximized="1"
     inkscape:current-layer="Layer_1" /><polygon
     style="fill:#111111;fill-opacity:1"
     id="polygon5"
     points="22,45 18,41 18,21 30,21 30,29 28,31 30,33 30,35 28,37 30,39 30,41 26,45 " /><path
     style="fill:#111111;fill-opacity:1"
     inkscape:connector-curvature="0"
     id="path7"
     d="M 38,7.8 C 37.5,6 36,4.7 34.3,4.2 31.9,3.7 28.2,3 24,3 19.8,3 16.1,3.7 13.7,4.2 12,4.7 10.5,6 10,7.8 9.5,9.5 9,11.9 9,14.5 c 0,2.6 0.5,5 1,6.7 0.5,1.8 1.9,3.1 3.7,3.5 2.4,0.6 6.1,1.3 10.3,1.3 4.2,0 7.9,-0.7 10.3,-1.2 1.8,-0.4 3.2,-1.8 3.7,-3.5 0.5,-1.7 1,-4.1 1,-6.7 0,-2.7 -0.5,-5.1 -1,-6.8 z M 29,13 19,13 c -1.1,0 -2,-0.9 -2,-2 l 0,-2 c 0,-0.6 3.1,-1 7,-1 3.9,0 7,0.4 7,1 l 0,2 c 0,1.1 -0.9,2 -2,2 z" /><rect
     x="23"
     y="26"
     fill="#D68600"
     width="2"
     height="19"
     id="rect9"
     style="fill:#d6d6d6;fill-opacity:1" /></svg>