<?xml version="1.0" encoding="UTF-8" standalone="no"?>
<svg
   xmlns:dc="http://purl.org/dc/elements/1.1/"
   xmlns:cc="http://creativecommons.org/ns#"
   xmlns:rdf="http://www.w3.org/1999/02/22-rdf-syntax-ns#"
   xmlns:svg="http://www.w3.org/2000/svg"
   xmlns="http://www.w3.org/2000/svg"
   xmlns:sodipodi="http://sodipodi.sourceforge.net/DTD/sodipodi-0.dtd"
   xmlns:inkscape="http://www.inkscape.org/namespaces/inkscape"
   enable-background="new 0 0 64 64"
   height="128"
   id="Layer_1"
   version="1.1"
   viewBox="0 0 128 128"
   width="128"
   xml:space="preserve"
   inkscape:version="0.91 r13725"
   sodipodi:docname="ol_save.svg"><metadata
     id="metadata19"><rdf:RDF><cc:Work
         rdf:about=""><dc:format>image/svg+xml</dc:format><dc:type
           rdf:resource="http://purl.org/dc/dcmitype/StillImage" /><dc:title /></cc:Work></rdf:RDF></metadata><defs
     id="defs17" /><sodipodi:namedview
     pagecolor="#ffffff"
     bordercolor="#666666"
     borderopacity="1"
     objecttolerance="10"
     gridtolerance="10"
     guidetolerance="10"
     inkscape:pageopacity="0"
     inkscape:pageshadow="2"
     inkscape:window-width="1920"
     inkscape:window-height="975"
     id="namedview15"
     showgrid="false"
     inkscape:zoom="3.6875"
     inkscape:cx="-5.4237288"
     inkscape:cy="31.59322"
     inkscape:window-x="1680"
     inkscape:window-y="27"
     inkscape:window-maximized="1"
     inkscape:current-layer="Layer_1" /><path
     inkscape:connector-curvature="0"
     id="path5"
     d="M 100,0 28,0 0,0 l 0,128 12,0 104,0 12,0 L 128,25.172 102.828,0 100,0 Z m -4,4 0,34 -64,0 0,-34 64,0 z m -80,120 0,-60 96,0 0,60 -96,0 z m 108,0 -8,0 0,-64 -104,0 0,64 -8,0 0,-120 24,0 0,38 72,0 0,-38 1.172,0 L 124,26.828 124,124 Z"
     style="fill:#000000;fill-opacity:1;stroke:#000000;stroke-opacity:1" /><rect
     id="rect7"
     y="76"
     x="28"
     width="72"
     height="4"
     style="fill:#000000;fill-opacity:1;stroke:#000000;stroke-opacity:1" /><rect
     id="rect9"
     y="92"
     x="28"
     width="72"
     height="4"
     style="fill:#000000;fill-opacity:1;stroke:#000000;stroke-opacity:1" /><rect
     id="rect11"
     y="108"
     x="28"
     width="72"
     height="4"
     style="fill:#000000;fill-opacity:1;stroke:#000000;stroke-opacity:1" /><path
     inkscape:connector-curvature="0"
     id="path13"
     d="m 88,8 -14,0 0,26 14,0 0,-26 z m -4,22 -6,0 0,-18 6,0 0,18 z"
     style="fill:#000000;fill-opacity:1;stroke:#000000;stroke-opacity:1" /></svg>