<svg width="128" height="128" xmlns="http://www.w3.org/2000/svg">
 <title/>

 <g>
  <title>background</title>
  <rect fill="none" id="canvas_background" height="402" width="582" y="-1" x="-1"/>
 </g>
 <g>
  <title>Layer 1</title>
  <path id="svg_2" fill="#cccccc" d="m89.23939,40.30138l10.9194,0a1.6998,1.6998 0 0 0 1.6998,-1.6998l0,0c0,-21.31415 -17.282,-39.00229 -38.59228,-38.59466a37.85421,37.85421 0 0 0 -37.11574,37.847l0,22.00742l14.31916,0l0,-21.47244c0,-13.16637 10.77412,-24.289 23.93861,-24.06647a23.56235,23.56235 0 0 1 23.1311,23.53149l0,0.74752a1.7,1.7 0 0 0 1.69995,1.69994z"/>
  <path id="svg_3" fill=" #c4c6c8" d="m59.23155,14.319a23.56154,23.56154 0 0 0 -23.5349,23.5349l0,22.00742l4.77305,0l0,-22.00743a23.568,23.568 0 0 1 21.14837,-23.41441a23.68514,23.68514 0 0 0 -2.38652,-0.12048z"/>
  <path id="svg_4" fill="#7f7f7f" d="m101.8586,38.60156c0,-21.1658 -17.04439,-38.74674 -38.15,-38.59146c-0.7011,0.0069 -1.39853,0.0291 -2.09054,0.07227a37.85052,37.85052 0 0 1 35.46748,37.77154l0.01044,2.44747l3.06279,0a1.69986,1.69986 0 0 0 1.69983,-1.69982z"/>
  <rect id="svg_5" fill="#00bf5f" y="56.12527" x="16.00001" width="95.99998" ry="7.19842" rx="7.19842" height="71.87472"/>
  <path id="svg_6" fill=" #4f5144" d="m76.14594,84.99848a12.14584,12.14584 0 1 0 -18.74328,10.0956a3.81881,3.81881 0 0 1 1.77755,3.20908l0,9.98784a2.878,2.878 0 0 0 2.89189,2.86383l3.8559,0a2.878,2.878 0 0 0 2.89189,-2.86383l0,-9.98764a3.74379,3.74379 0 0 1 1.7174,-3.17094a11.985,11.985 0 0 0 5.60865,-10.13394z"/>
  <path id="svg_7" fill="#007f3f" d="m105.1816,56.12525l-1.38774,0a8.98775,8.98775 0 0 1 1.34256,4.76587l0.00005,62.343a8.98775,8.98775 0 0 1 -1.34255,4.76588l1.38774,0c3.76566,0 6.81834,-3.40258 6.81834,-7.59972l0,-56.67542c0,-4.19702 -3.05268,-7.59961 -6.8184,-7.59961z"/>
 </g>
</svg>