<svg width="48" height="48" xmlns="http://www.w3.org/2000/svg">

 <g>
  <title>background</title>
  <rect fill="none" id="canvas_background" height="402" width="582" y="-1" x="-1"/>
 </g>
 <g>
  <title>Layer 1</title>
  <path id="svg_2" fill="#F9F9F9" d="m31.71089,20.55699l0,-3.37585c0,-3.91852 -2.80917,-7.41536 -6.69577,-7.91447c-4.29321,-0.55132 -8.02083,2.4547 -8.63668,6.47241c-0.09469,0.61774 0.40229,1.17331 1.02725,1.17331l0,0c0.50542,0 0.93194,-0.36868 1.00929,-0.86815c0.44668,-2.88423 3.08279,-5.05486 6.1505,-4.75503c2.93587,0.28694 5.08638,2.92645 5.08638,5.87631l0,3.39147"/>
  <path id="svg_3" fill="#FFCC66" d="m13.02031,20.55533l0,15.20001c0,1.67999 1.35999,3.04004 3.03998,3.04004l15.88,0c1.67999,0 3.03998,-1.36005 3.03998,-3.04004l0,-15.20001l-21.95996,0zm11.94,8.72003l0,2.21997c0,0.53003 -0.42999,0.96002 -0.96002,0.96002c-0.52997,0 -0.95996,-0.42999 -0.95996,-0.96002l0,-2.21997c-0.45001,-0.29999 -0.75,-0.82001 -0.75,-1.40997c0,-0.94 0.76996,-1.70001 1.70996,-1.70001s1.71002,0.76001 1.71002,1.70001c0,0.58997 -0.29999,1.09998 -0.75,1.40997z"/>
  <path id="svg_4" fill="#5fbf00" stroke="#303030" stroke-width="0.7" stroke-linecap="round" stroke-linejoin="round" stroke-miterlimit="10" d="m35.057262,20.55699l-21.96434,0l0,15.20067c0,1.67949 1.36149,3.04098 3.04098,3.04098l15.88239,0c1.67949,0 3.04098,-1.36149 3.04098,-3.04098l0,-15.20067l-0.00001,0z"/>
  <path id="svg_5" fill="none" stroke="#303030" stroke-width="0.7" stroke-linecap="round" stroke-linejoin="round" stroke-miterlimit="10" d="m31.71089,20.55699l0,-3.37585c0,-3.91852 -2.80917,-7.41536 -6.69577,-7.91447c-4.29321,-0.55132 -8.02083,2.4547 -8.63668,6.47241c-0.09469,0.61774 0.40229,1.17331 1.02725,1.17331l0,0c0.50542,0 0.93194,-0.36868 1.00929,-0.86815c0.44668,-2.88423 3.08279,-5.05486 6.1505,-4.75503c2.93587,0.28694 5.08638,2.92645 5.08638,5.87631l0,3.39147"/>
  <path id="svg_6" fill="none" stroke="#303030" stroke-width="0.7" stroke-linecap="round" stroke-linejoin="round" stroke-miterlimit="10" d="m25.70708,27.86987c0,-0.94275 -0.76427,-1.70703 -1.70709,-1.70703c-0.94276,0 -1.70703,0.76427 -1.70703,1.70703c0,0.58503 0.29503,1.10059 0.74369,1.40814l0,2.21756c0,0.53205 0.43135,0.9634 0.96346,0.9634s0.96346,-0.43135 0.96346,-0.9634l0,-2.21774c0.44854,-0.3076 0.74351,-0.82298 0.74351,-1.40796z"/>
 </g>
</svg>