<?xml version="1.0" ?><!DOCTYPE svg  PUBLIC '-//W3C//DTD SVG 1.1//EN'  'http://www.w3.org/Graphics/SVG/1.1/DTD/svg11.dtd'><svg height="6.82666in" style="shape-rendering:geometricPrecision; text-rendering:geometricPrecision; image-rendering:optimizeQuality; fill-rule:evenodd; clip-rule:evenodd" viewBox="0 0 6.82666 6.82666" width="6.82666in" xml:space="preserve" xmlns="http://www.w3.org/2000/svg" xmlns:xlink="http://www.w3.org/1999/xlink"><defs><style type="text/css">
   <![CDATA[
    .fil7 {fill:none}
    .fil3 {fill:#1565C0}
    .fil0 {fill:#1E88E5}
    .fil5 {fill:#CFCFC8}
    .fil4 {fill:#D7D7D6}
    .fil6 {fill:#FFCA28}
    .fil1 {fill:#FFFFFE}
    .fil2 {fill:#1565C0;fill-rule:nonzero}
   ]]>
  </style></defs><g id="Layer_x0020_1"><g id="_196319320"><path class="fil0" d="M1.05333 0.853331l0.951984 0 0 0.204004 2.81601 0 0 -0.204004 0.146354 0 1.00565 1.00565 0 3.91435c0,0.109972 -0.0900315,0.200004 -0.200004,0.200004l-4.71999 0c-0.110008,0 -0.200004,-0.0899961 -0.200004,-0.200004l0 -4.71999c0,-0.110008 0.0899961,-0.200004 0.200004,-0.200004z" id="_196288576"/><rect class="fil1" height="1.872" id="_196287904" width="2.81601" x="2.00532" y="4.05333"/><path class="fil2" d="M2.00532 4.02933l2.81601 0 0.024 0 0 0.024 0 1.896 0 0.024 -0.024 0 -2.81601 0 -0.024 0 0 -0.024 0 -1.896 0 -0.024 0.024 0zm2.79201 0.048l-2.76801 0 0 1.848 2.76801 0 0 -1.848z" id="_196288312"/><rect class="fil3" height="1.49359" id="_196288240" width="2.81601" x="2.00532" y="1.02374"/><path class="fil4" d="M3.02933 0.853331l1.664 0 0 1.5353 -1.664 0 0 -1.5353zm1.19868 0.40998l0.191165 0c0.0323504,0 0.058811,0.0244252 0.058811,0.0542874l0 0.60676c0,0.0298622 -0.0264606,0.0542874 -0.058811,0.0542874l-0.191165 0c-0.0323543,0 -0.058811,-0.0244252 -0.058811,-0.0542874l0 -0.60676c0,-0.0298622 0.0264567,-0.0542874 0.058811,-0.0542874z" id="_196287664"/><g><rect class="fil5" height="0.0763086" id="_196287592" width="1.792" x="2.51732" y="5.37333"/><rect class="fil5" height="0.0763086" id="_196287880" width="1.792" x="2.51732" y="4.98933"/></g><rect class="fil3" height="0.375" id="_196320064" rx="0.08" ry="0.08" width="0.375" x="1.19772" y="5.40765"/><rect class="fil3" height="0.375" id="_196319872" rx="0.08" ry="0.08" width="0.375" x="5.25394" y="5.40765"/><rect class="fil6" height="0.436308" id="_196319464" width="2.76801" x="2.02932" y="4.07733"/></g></g><rect class="fil7" height="6.82666" width="6.82666"/></svg>