<?xml version="1.0" ?><svg id="图层_1" style="enable-background:new 0 0 256 256;" version="1.1" viewBox="0 0 256 256" xml:space="preserve" xmlns="http://www.w3.org/2000/svg" xmlns:xlink="http://www.w3.org/1999/xlink"><style type="text/css">
	.st0{fill:url(#XMLID_7_);}
	.st1{fill:#CFF9AF;}
</style><g id="XMLID_1_"><linearGradient gradientUnits="userSpaceOnUse" id="XMLID_7_" x1="128" x2="128" y1="224.4389" y2="28.4537"><stop offset="0" style="stop-color:#64B236"/><stop offset="0.3788" style="stop-color:#7EC828"/><stop offset="0.7353" style="stop-color:#8FD61E"/><stop offset="1" style="stop-color:#95DB1B"/></linearGradient><path class="st0" d="M215.6,101.1h-60.7V40.4c0-9.5-7.8-17.4-17.4-17.4h-19.1c-9.5,0-17.4,7.8-17.4,17.4v60.7H40.4   c-9.5,0-17.4,7.8-17.4,17.4v19.1c0,9.5,7.8,17.4,17.4,17.4h60.7v60.7c0,9.5,7.8,17.4,17.4,17.4h19.1c9.5,0,17.4-7.8,17.4-17.4   v-60.7h60.7c9.5,0,17.4-7.8,17.4-17.4v-19.1C233,108.9,225.2,101.1,215.6,101.1z" id="XMLID_5_"/><path class="st1" d="M153.7,42.3c0-9.1-7.5-16.6-16.6-16.6h-18.3c-9.1,0-16.6,7.5-16.6,16.6v2.7c0-9.1,7.5-16.6,16.6-16.6h18.3   c9.1,0,16.6,7.5,16.6,16.6V42.3z M211.9,104.1h-58.1v2.7h58.1c9.1,0,16.6,7.5,16.6,16.6v-2.7C228.5,111.6,221,104.1,211.9,104.1z    M27.5,120.7v2.7c0-9.1,7.5-16.6,16.6-16.6h58.1v-2.7H44.1C35,104.1,27.5,111.6,27.5,120.7z"/></g></svg>