<?xml version="1.0" ?><svg clip-rule="evenodd" fill-rule="evenodd" image-rendering="optimizeQuality" shape-rendering="geometricPrecision" text-rendering="geometricPrecision" viewBox="0 0 500 500" xmlns="http://www.w3.org/2000/svg"><defs><linearGradient gradientUnits="userSpaceOnUse" id="a" x1="409.998" x2="89.998" y1="250" y2="250"><stop offset="0" stop-color="#DDDEDE"/><stop offset=".639" stop-color="#f5f5f5"/><stop offset="1" stop-color="#DDDEDE"/></linearGradient><linearGradient gradientUnits="userSpaceOnUse" id="b" x1="406.798" x2="93.198" y1="250" y2="250"><stop offset="0" stop-color="#008BFF"/><stop offset=".639" stop-color="#4EAFFF"/><stop offset="1" stop-color="#008BFF"/></linearGradient></defs><g stroke="#434242"><path d="M90 345h320v105c0 5-5 10-10 10h-300c-5 0-10-5-10-10v-105zm320-160h-320v130h320v-130zm-320-30h320v-105c0-5-5-10-10-10h-300c-6 0-10 5-10 10v105z" fill="url(#a)" stroke-linejoin="round" stroke-width="10"/><path d="M410 315h-320l5 10v10l-5 10h320l-5-10v-10l5-10zm0-160h-320l5 10v10l-5 10h320l-5-10v-10l5-10z" fill="url(#b)" stroke-width="5"/><path d="M95 165h310m0 10h-310m0 150h310m0 10h-310" fill="none" stroke-width="2.5"/></g></svg>