<?xml version="1.0" ?><svg height="94px" version="1.1" viewBox="0 0 104 94" width="104px" xmlns="http://www.w3.org/2000/svg" xmlns:xlink="http://www.w3.org/1999/xlink"><title/><desc/><defs/><g fill="none" fill-rule="evenodd" id="17.Files" stroke="none" stroke-linecap="round" stroke-linejoin="round" stroke-width="1"><g id="Files-(Color)" stroke="#263238" stroke-width="3.5" transform="translate(-98.000000, -698.000000)"><g id="31-files-folder" transform="translate(100.000000, 700.000000)"><path d="M30,10 L97.0071986,10 C98.6600772,10 100,11.3383447 100,12.9900874 L100,87.0099126 C100,88.6612923 98.6619875,90 97.0071986,90 L2.99280137,90 C1.33992281,90 0,88.6616553 0,87.0099126 L0,10 L0,3.00032973 C0,1.34329338 1.33633795,0 2.99815028,0 L21.8573185,0 C23.5131511,0 25.4658163,1.18640065 26.2273507,2.66668016 L30,10 L30,10 Z" fill="#F7E07E" id="Layer-1"/><path d="M100,25 L100,12.9900874 C100,11.3383447 98.6600772,10 97.0071986,10 L30,10 L26.2273507,2.66668016 C25.4658163,1.18640065 23.5131511,0 21.8573185,0 L2.99815028,0 C1.33633795,0 0,1.34329338 0,3.00032973 L0,10 L0,25 L100,25 L100,25 Z" fill="#FFB96E" id="Layer-2"/></g></g></g></svg>