<?xml version="1.0" encoding="UTF-8" standalone="no"?>
<svg
   xmlns:dc="http://purl.org/dc/elements/1.1/"
   xmlns:cc="http://creativecommons.org/ns#"
   xmlns:rdf="http://www.w3.org/1999/02/22-rdf-syntax-ns#"
   xmlns:svg="http://www.w3.org/2000/svg"
   xmlns="http://www.w3.org/2000/svg"
   xmlns:sodipodi="http://sodipodi.sourceforge.net/DTD/sodipodi-0.dtd"
   xmlns:inkscape="http://www.inkscape.org/namespaces/inkscape"
   enable-background="new 0 0 16 16"
   height="256"
   id="Layer_1"
   version="1.0"
   viewBox="0 0 40.96 40.96"
   width="256"
   xml:space="preserve"
   inkscape:version="0.91 r13725"
   sodipodi:docname="ol_database_red.svg"><metadata
     id="metadata20"><rdf:RDF><cc:Work
         rdf:about=""><dc:format>image/svg+xml</dc:format><dc:type
           rdf:resource="http://purl.org/dc/dcmitype/StillImage" /><dc:title></dc:title></cc:Work></rdf:RDF></metadata><defs
     id="defs18" /><sodipodi:namedview
     pagecolor="#ffffff"
     bordercolor="#666666"
     borderopacity="1"
     objecttolerance="10"
     gridtolerance="10"
     guidetolerance="10"
     inkscape:pageopacity="0"
     inkscape:pageshadow="2"
     inkscape:window-width="2560"
     inkscape:window-height="1311"
     id="namedview16"
     showgrid="false"
     inkscape:zoom="3.7442308"
     inkscape:cx="114.0832"
     inkscape:cy="124.73549"
     inkscape:window-x="1920"
     inkscape:window-y="27"
     inkscape:window-maximized="1"
     inkscape:current-layer="Layer_1" /><g
     id="g4167"
     transform="matrix(1.9055311,0,0,1.9055311,0.73468695,0.75314294)"><path
       inkscape:connector-curvature="0"
       id="path4811"
       d="M 19.592677,2.8384253 A 9.2218204,2.1017271 0 0 1 10.370851,4.9401124 9.2218204,2.1017271 0 0 1 1.1490431,2.8384253 9.2218204,2.1017271 0 0 1 10.370851,0.73668473 9.2218204,2.1017271 0 0 1 19.592677,2.8384253 Z"
       style="opacity:1;fill:#a21a14;fill-opacity:1" /><path
       inkscape:connector-curvature="0"
       id="path4811-3"
       d="M 19.594163,8.2770555 A 9.2233041,2.093252 0 0 1 10.37085,10.370305 9.2233041,2.093252 0 0 1 1.1475571,8.2770555 9.2233041,2.093252 0 0 1 10.37085,6.1838066 9.2233041,2.093252 0 0 1 19.594163,8.2770555 Z"
       style="opacity:1;fill:#a21a14;fill-opacity:1" /><path
       inkscape:connector-curvature="0"
       id="path4811-6"
       d="m 19.592604,13.878038 a 9.2333907,2.2462436 0 0 1 -9.233375,2.24624 9.2333907,2.2462436 0 0 1 -9.2333943,-2.24624 9.2333907,2.2462436 0 0 1 9.2333943,-2.24624 9.2333907,2.2462436 0 0 1 9.233375,2.24624 z"
       style="opacity:1;fill:#a21a14;fill-opacity:1" /><path
       d="m 1.1433451,2.9290204 0,3.2680154 c 0,1.5045 4.1313007,2.7255762 9.2275149,2.7255762 5.096213,0 9.227515,-1.2210762 9.227515,-2.7255762 l 0,-3.2680154 c -2.633808,1.8315957 -8.39704,1.9051902 -9.226187,1.9051902 -0.8291653,0 -6.5923984,-0.07359 -9.2288429,-1.9051902"
       id="path10"
       inkscape:connector-curvature="0"
       style="fill:#d72721;fill-opacity:1;stroke:none;stroke-opacity:1" /><path
       d="m 1.1433451,8.3685488 0,3.2680152 c 0,1.5045 4.1313007,2.725576 9.2275149,2.725576 5.096213,0 9.227515,-1.221076 9.227515,-2.725576 l 0,-3.2680152 c -2.633808,1.8315962 -8.39704,1.9051902 -9.226187,1.9051902 -0.8291653,0 -6.5923984,-0.07359 -9.2288427,-1.9051902"
       id="path10-3"
       inkscape:connector-curvature="0"
       style="fill:#d72721;fill-opacity:1;stroke:none;stroke-opacity:1" /><path
       d="m 1.1433456,13.974563 0,3.268014 c 0,1.5045 4.1313006,2.725577 9.2275144,2.725577 5.096213,0 9.227515,-1.221077 9.227515,-2.725577 l 0,-3.268014 c -2.633808,1.831595 -8.39704,1.90519 -9.226187,1.90519 -0.8291649,0 -6.5923981,-0.07359 -9.2288424,-1.90519"
       id="path10-6"
       inkscape:connector-curvature="0"
       style="fill:#d72721;fill-opacity:1;stroke:none;stroke-opacity:1" /></g></svg>