<?xml version="1.0" encoding="UTF-8" standalone="no"?>
<svg
   xmlns:dc="http://purl.org/dc/elements/1.1/"
   xmlns:cc="http://creativecommons.org/ns#"
   xmlns:rdf="http://www.w3.org/1999/02/22-rdf-syntax-ns#"
   xmlns:svg="http://www.w3.org/2000/svg"
   xmlns="http://www.w3.org/2000/svg"
   xmlns:xlink="http://www.w3.org/1999/xlink"
   xmlns:sodipodi="http://sodipodi.sourceforge.net/DTD/sodipodi-0.dtd"
   xmlns:inkscape="http://www.inkscape.org/namespaces/inkscape"
   height="512px"
   id="Layer_1"
   style="enable-background:new 0 0 512 512;"
   version="1.1"
   viewBox="0 0 512 512"
   width="512px"
   xml:space="preserve"
   inkscape:version="0.91 r13725"
   sodipodi:docname="ol_settings.svg"><metadata
     id="metadata4733"><rdf:RDF><cc:Work
         rdf:about=""><dc:format>image/svg+xml</dc:format><dc:type
           rdf:resource="http://purl.org/dc/dcmitype/StillImage" /></cc:Work></rdf:RDF></metadata><sodipodi:namedview
     pagecolor="#ffffff"
     bordercolor="#666666"
     borderopacity="1"
     objecttolerance="10"
     gridtolerance="10"
     guidetolerance="10"
     inkscape:pageopacity="0"
     inkscape:pageshadow="2"
     inkscape:window-width="1920"
     inkscape:window-height="975"
     id="namedview4731"
     showgrid="false"
     inkscape:zoom="1.5722656"
     inkscape:cx="256"
     inkscape:cy="256"
     inkscape:window-x="1680"
     inkscape:window-y="27"
     inkscape:window-maximized="1"
     inkscape:current-layer="Layer_1" /><defs
     id="defs126"><linearGradient
       gradientUnits="userSpaceOnUse"
       id="path130_1_-6"
       x1="255.25"
       x2="255.25"
       y1="90.894501"
       y2="421.58151"><stop
         id="stop6-1"
         offset="0"
         style="stop-color:#e84d4d;stop-opacity:1" /><stop
         id="stop8-4"
         offset="1"
         style="stop-color:#b82626;stop-opacity:1" /></linearGradient><linearGradient
       gradientUnits="userSpaceOnUse"
       id="path132_1_-2"
       x1="254.4995"
       x2="254.4995"
       y1="57"
       y2="455.00049"><stop
         id="stop12-3"
         offset="0"
         style="stop-color:#e84d4d;stop-opacity:1" /><stop
         id="stop14-2"
         offset="1"
         style="stop-color:#b82626;stop-opacity:1" /></linearGradient><linearGradient
       gradientUnits="userSpaceOnUse"
       id="SVGID_1_-11"
       x1="225.5005"
       x2="225.5005"
       y1="259"
       y2="96.000504"><stop
         id="stop6-5"
         offset="0"
         style="stop-color:#c5732d;stop-opacity:1" /><stop
         id="stop8-2"
         offset="1"
         style="stop-color:#de8a47;stop-opacity:1" /></linearGradient><linearGradient
       gradientUnits="userSpaceOnUse"
       id="SVGID_2_-1"
       x1="388.5"
       x2="388.5"
       y1="259"
       y2="49.0005"><stop
         id="stop13"
         offset="0"
         style="stop-color:#0c80b1;stop-opacity:1" /><stop
         id="stop15-7"
         offset="1"
         style="stop-color:#1096cb;stop-opacity:1" /></linearGradient><linearGradient
       gradientTransform="matrix(0,-1.4222,1.4222,0,901.8973,620.4288)"
       gradientUnits="userSpaceOnUse"
       id="path116_1_"
       x1="550.57507"
       x2="657.82581"
       y1="-428.03421"
       y2="-428.03421"><stop
         id="stop23"
         offset="0"
         style="stop-color:#fcbc1c;stop-opacity:1" /><stop
         id="stop25"
         offset="1"
         style="stop-color:#f9a91a;stop-opacity:1" /></linearGradient><linearGradient
       gradientTransform="matrix(-0.1587,1.4133,-1.4248,-0.0562,-982.3953,-34.1116)"
       gradientUnits="userSpaceOnUse"
       id="path118_1_"
       x1="-316.8895"
       x2="-270.918"
       y1="-905.82758"
       y2="-905.82758"><stop
         id="stop29"
         offset="0"
         style="stop-color:#343434;stop-opacity:1" /><stop
         id="stop31"
         offset="1"
         style="stop-color:#636464;stop-opacity:1" /></linearGradient><linearGradient
       gradientTransform="matrix(-0.1587,1.4133,-1.4248,-0.0562,-992.7071,-34.1116)"
       gradientUnits="userSpaceOnUse"
       id="path120_1_"
       x1="-312.52051"
       x2="-266.55591"
       y1="-795.96619"
       y2="-795.96619"><stop
         id="stop35"
         offset="0"
         style="stop-color:#343434;stop-opacity:1" /><stop
         id="stop37-4"
         offset="1"
         style="stop-color:#636464;stop-opacity:1" /></linearGradient><linearGradient
       gradientTransform="matrix(-0.2132,1.4062,-1.4321,-0.0419,-982.0714,-22.2657)"
       gradientUnits="userSpaceOnUse"
       id="path126_1_"
       x1="-321.68011"
       x2="-93.114502"
       y1="-822.49091"
       y2="-822.49091"><stop
         id="stop43-0"
         offset="0"
         style="stop-color:#343434;stop-opacity:1" /><stop
         id="stop45"
         offset="1"
         style="stop-color:#636464;stop-opacity:1" /></linearGradient><linearGradient
       gradientTransform="matrix(0.3066,-1.3888,1.4003,0.254,806.0466,793.6501)"
       gradientUnits="userSpaceOnUse"
       id="path128_1_"
       x1="465.74139"
       x2="524.22882"
       y1="-652.36761"
       y2="-652.36761"><stop
         id="stop49"
         offset="0"
         style="stop-color:#e64d4d;stop-opacity:1" /><stop
         id="stop51"
         offset="1"
         style="stop-color:#b62727;stop-opacity:1" /></linearGradient><radialGradient
       cx="256"
       cy="256"
       fx="256"
       fy="256"
       gradientUnits="userSpaceOnUse"
       id="radialGradient3952"
       r="256"
       xlink:href="#path118_1_" /></defs><radialGradient
     cx="-608"
     cy="32"
     gradientUnits="userSpaceOnUse"
     id="SVGID_1_"
     r="37.1533"><stop
       id="stop4"
       offset="0"
       style="stop-color:#000000" /><stop
       id="stop6"
       offset="0.0569"
       style="stop-color:#000000;stop-opacity:0.9717" /><stop
       id="stop8"
       offset="0.4023"
       style="stop-color:#000000;stop-opacity:0.8" /><stop
       id="stop10"
       offset="0.8736"
       style="stop-color:#000000" /></radialGradient><radialGradient
     cx="-537"
     cy="36"
     gradientUnits="userSpaceOnUse"
     id="SVGID_2_"
     r="41.7974"><stop
       id="stop15"
       offset="0"
       style="stop-color:#000000" /><stop
       id="stop17"
       offset="0.0569"
       style="stop-color:#000000;stop-opacity:0.9717" /><stop
       id="stop19"
       offset="0.4023"
       style="stop-color:#000000;stop-opacity:0.8" /><stop
       id="stop21"
       offset="0.8736"
       style="stop-color:#000000" /></radialGradient><radialGradient
     cx="-449"
     cy="48"
     gradientUnits="userSpaceOnUse"
     id="SVGID_3_"
     r="55.7299"><stop
       id="stop26"
       offset="0"
       style="stop-color:#000000" /><stop
       id="stop28"
       offset="0.0569"
       style="stop-color:#000000;stop-opacity:0.9717" /><stop
       id="stop30"
       offset="0.4023"
       style="stop-color:#000000;stop-opacity:0.8" /><stop
       id="stop32"
       offset="0.8736"
       style="stop-color:#000000" /></radialGradient><radialGradient
     cx="-331"
     cy="64"
     gradientUnits="userSpaceOnUse"
     id="SVGID_4_"
     r="74.3065"><stop
       id="stop37"
       offset="0"
       style="stop-color:#000000" /><stop
       id="stop39"
       offset="0.0569"
       style="stop-color:#000000;stop-opacity:0.9717" /><stop
       id="stop41"
       offset="0.4023"
       style="stop-color:#000000;stop-opacity:0.8" /><stop
       id="stop43"
       offset="0.8736"
       style="stop-color:#000000" /></radialGradient><radialGradient
     cx="-134"
     cy="128"
     gradientUnits="userSpaceOnUse"
     id="SVGID_5_"
     r="148.6131"><stop
       id="stop48"
       offset="0"
       style="stop-color:#000000" /><stop
       id="stop50"
       offset="0.0569"
       style="stop-color:#000000;stop-opacity:0.9717" /><stop
       id="stop52"
       offset="0.4023"
       style="stop-color:#000000;stop-opacity:0.8" /><stop
       id="stop54"
       offset="0.8736"
       style="stop-color:#000000" /></radialGradient><radialGradient
     cx="255.1094"
     cy="255.1426"
     gradientTransform="matrix(1.002 0 0 1.002 0.3805 0.3467)"
     gradientUnits="userSpaceOnUse"
     id="SVGID_6_"
     r="296.6321"><stop
       id="stop59"
       offset="0"
       style="stop-color:#000000" /><stop
       id="stop61"
       offset="0.0569"
       style="stop-color:#000000;stop-opacity:0.9717" /><stop
       id="stop63"
       offset="0.4023"
       style="stop-color:#000000;stop-opacity:0.8" /><stop
       id="stop65"
       offset="0.8736"
       style="stop-color:#000000" /></radialGradient><path
     d="M512,284.986v-58.277l-7.69-2.68l-62.106-20.373l-16.501-40.186l32.052-67.68l-41.172-41.215  l-7.703,3.924l-58.484,29.721l-40.172-17.188L284.973,0h-58.243l-2.702,8.779l-20.359,62.627L163.5,88.174L95.777,56.279  L54.582,97.5l3.934,7.721l29.688,58.537l-17.156,40.148L0,229.156v58.291l8.766,2.676l62.652,20.363l16.77,40.178l-31.909,67.713  l41.206,41.184l7.738-3.926l58.522-29.688l40.173,16.086L229.172,512h58.262l2.688-7.674l20.379-62.109l40.152-16.52l67.707,32.066  l41.207-41.17l-3.926-7.709l-29.707-58.5l16.125-40.176L512,284.986z M257.066,338.656c-45.051,0-81.566-36.521-81.566-81.58  c0-45.076,36.516-81.584,81.566-81.584c45.074,0,81.586,36.508,81.586,81.584C338.652,302.135,302.141,338.656,257.066,338.656z"
     id="path67"
     style="fill:url(#radialGradient3952);fill-opacity:1" /><radialGradient
     cx="-667"
     cy="24"
     gradientUnits="userSpaceOnUse"
     id="SVGID_7_"
     r="27.865"><stop
       id="stop70"
       offset="0"
       style="stop-color:#000000" /><stop
       id="stop72"
       offset="0.0569"
       style="stop-color:#000000;stop-opacity:0.9717" /><stop
       id="stop74"
       offset="0.4023"
       style="stop-color:#000000;stop-opacity:0.8" /><stop
       id="stop76"
       offset="0.8736"
       style="stop-color:#000000" /></radialGradient><radialGradient
     cx="-709"
     cy="16"
     gradientUnits="userSpaceOnUse"
     id="SVGID_8_"
     r="18.5766"><stop
       id="stop81"
       offset="0"
       style="stop-color:#000000" /><stop
       id="stop83"
       offset="0.0569"
       style="stop-color:#000000;stop-opacity:0.9717" /><stop
       id="stop85"
       offset="0.4023"
       style="stop-color:#000000;stop-opacity:0.8" /><stop
       id="stop87"
       offset="0.8736"
       style="stop-color:#000000" /></radialGradient><radialGradient
     cx="-741"
     cy="13"
     gradientUnits="userSpaceOnUse"
     id="SVGID_9_"
     r="15.0935"><stop
       id="stop92"
       offset="0"
       style="stop-color:#000000" /><stop
       id="stop94"
       offset="0.0569"
       style="stop-color:#000000;stop-opacity:0.9717" /><stop
       id="stop96"
       offset="0.4023"
       style="stop-color:#000000;stop-opacity:0.8" /><stop
       id="stop98"
       offset="0.8736"
       style="stop-color:#000000" /></radialGradient><radialGradient
     cx="-770"
     cy="12"
     gradientUnits="userSpaceOnUse"
     id="SVGID_10_"
     r="13.9325"><stop
       id="stop103"
       offset="0"
       style="stop-color:#000000" /><stop
       id="stop105"
       offset="0.0569"
       style="stop-color:#000000;stop-opacity:0.9717" /><stop
       id="stop107"
       offset="0.4023"
       style="stop-color:#000000;stop-opacity:0.8" /><stop
       id="stop109"
       offset="0.8736"
       style="stop-color:#000000" /></radialGradient><radialGradient
     cx="-795"
     cy="8"
     gradientUnits="userSpaceOnUse"
     id="SVGID_11_"
     r="9.2883"><stop
       id="stop114"
       offset="0"
       style="stop-color:#000000" /><stop
       id="stop116"
       offset="0.0569"
       style="stop-color:#000000;stop-opacity:0.9717" /><stop
       id="stop118"
       offset="0.4023"
       style="stop-color:#000000;stop-opacity:0.8" /><stop
       id="stop120"
       offset="0.8736"
       style="stop-color:#000000" /></radialGradient><path
     style="fill-opacity:1;fill-rule:nonzero"
     d="m 244.42435,492.58346 c -5.0723,-0.2474 -12.23365,-0.8078 -15.91411,-1.24534 l -6.69176,-0.79554 -8.82567,-24.38728 -8.82566,-24.38728 -20.12617,-8.04284 -20.12616,-8.04284 -23.00373,11.50532 -23.00372,11.50531 -6.22723,-4.85017 C 95.06054,430.89837 79.717048,415.57896 68.061376,400.29251 l -1.762264,-2.31121 11.107792,-23.64146 11.107796,-23.64145 -8.390547,-20.15913 -8.390544,-20.15914 -24.85655,-8.20021 -24.85655,-8.20022 -0.724117,-5.47432 c -1.731436,-13.08965 -2.162154,-21.91984 -1.833731,-37.59357 0.390867,-18.65381 1.366707,-28.40215 2.922654,-29.1964 0.56122,-0.28649 11.786579,-4.35275 24.945245,-9.03615 l 23.924844,-8.51527 8.670569,-20.25594 8.670571,-20.25593 -12.0791,-23.68643 -12.079098,-23.68644 6.796012,-8.52968 c 8.360806,-10.493659 25.254179,-27.478731 35.552072,-35.745056 4.23156,-3.396763 7.85835,-6.175933 8.05953,-6.175933 0.20118,0 11.03297,5.008696 24.07065,11.130435 13.03768,6.121739 24.12401,11.130435 24.63629,11.130435 1.30608,0 39.04747,-15.806159 39.95318,-16.732468 0.40775,-0.417018 4.22989,-11.491134 8.49364,-24.609147 4.26374,-13.118012 8.14472,-24.163556 8.62438,-24.545652 2.394,-1.907042 29.72368,-3.515585 46.50165,-2.736948 10.14634,0.470874 24.76483,1.954607 25.25102,2.562903 0.10232,0.128007 4.11408,11.26436 8.91502,24.747451 l 8.729,24.51471 20.15085,8.654427 20.15084,8.654428 23.10789,-11.718316 23.10789,-11.718315 6.46727,5.079952 c 13.36763,10.500094 28.75681,25.927302 38.97303,39.069334 3.68971,4.7464 5.26266,7.26927 5.01626,8.04562 -0.19743,0.62205 -5.07146,11.08065 -10.83118,23.24133 -5.75971,12.16068 -10.47781,22.42202 -10.48466,22.80299 -0.007,0.38097 3.64233,9.64476 8.10931,20.58619 l 8.12177,19.89353 23.53292,7.69109 c 12.94311,4.2301 23.85633,8.01442 24.2516,8.40959 0.94516,0.94489 1.96147,9.42843 2.86503,23.91555 0.55709,8.93203 0.55333,14.72625 -0.0156,24.16895 -0.70373,11.67851 -2.02793,23.85893 -2.65264,24.40004 -0.15365,0.13309 -11.01229,4.12566 -24.1303,8.87238 l -23.85093,8.63039 -8.16687,20.17854 -8.16688,20.17855 11.2448,22.18941 11.2448,22.18941 -2.71655,3.63117 c -11.66947,15.59842 -27.20916,31.5276 -42.40245,43.46524 l -6.52587,5.12751 -22.41326,-10.56043 c -12.32728,-5.80824 -22.86528,-10.55813 -23.41776,-10.55532 -1.14709,0.006 -39.39864,15.64289 -40.06421,16.37806 -0.23985,0.26494 -3.96232,11.10765 -8.27215,24.09492 l -7.83607,23.61322 -5.12085,0.69866 c -14.18088,1.93478 -30.81549,2.67066 -44.8724,1.98507 l -2e-5,0 z m 29.13222,-107.15321 c 29.94032,-4.25594 56.61024,-17.93978 77.15837,-39.58852 48.08405,-50.65953 47.81297,-129.83666 -0.61728,-180.29409 -20.45126,-21.30731 -46.86836,-34.75998 -76.54109,-38.97789 -7.66345,-1.08934 -25.24233,-1.24325 -32.96505,-0.28863 -32.80439,4.05501 -63.43129,20.46621 -83.99383,45.0075 -15.63643,18.66202 -25.01589,38.8382 -29.62319,63.72256 -1.59197,8.59838 -1.59197,33.37926 0,41.97764 6.25448,33.7809 22.85521,61.79109 48.59727,81.99751 17.72884,13.91638 41.38576,23.75419 64.14387,26.67445 7.23841,0.92881 26.61354,0.79683 33.84093,-0.23053 z"
     id="path4735"
     inkscape:connector-curvature="0" /><path
     style="fill-opacity:1;fill-rule:nonzero"
     d="m 243.78832,385.74287 c -22.95917,-1.56121 -50.61218,-12.80162 -69.96273,-28.43849 -6.23557,-5.03886 -17.18588,-16.37585 -21.85136,-22.62297 -11.18258,-14.97358 -18.93638,-32.0778 -23.70282,-52.28638 -1.75686,-7.44864 -1.80053,-8.07613 -1.81492,-26.07702 -0.0124,-15.49726 0.17077,-19.30862 1.14623,-23.85093 5.93384,-27.63155 16.77974,-48.45542 35.06798,-67.32966 11.07048,-11.4252 21.19623,-18.77377 35.6741,-25.88981 36.74904,-18.06255 79.296,-18.01945 115.83357,0.11734 34.1478,16.95054 59.47108,48.80945 68.58876,86.29069 5.09089,20.92778 4.53751,45.49779 -1.49306,66.29149 -9.85907,33.99455 -32.43977,62.00449 -63.70687,79.02433 -11.3396,6.17256 -28.33364,11.80945 -41.41944,13.73874 -8.27206,1.21958 -22.79506,1.68305 -32.35944,1.03267 z m 27.10675,-48.04272 c 6.65895,-1.15894 16.95359,-4.49179 22.61226,-7.32064 22.93253,-11.46428 39.59742,-33.75451 44.15329,-59.05753 1.36382,-7.5746 1.33113,-21.09731 -0.0693,-28.6785 -1.24327,-6.73026 -4.54793,-16.80193 -7.30511,-22.26386 -5.33198,-10.5626 -15.00139,-22.05767 -24.46142,-29.07992 -8.89304,-6.60139 -21.18035,-12.0414 -32.92675,-14.57781 -7.38979,-1.59568 -24.17126,-1.58334 -31.62035,0.0232 -16.61741,3.58399 -30.19795,10.84545 -41.74011,22.31827 -11.77401,11.70329 -19.23364,25.58873 -22.89985,42.62603 -1.51363,7.03402 -1.5437,22.81566 -0.0578,30.34463 3.30266,16.73453 10.59212,30.42557 22.6533,42.54731 12.55292,12.61596 26.55459,19.95127 44.23712,23.17529 6.33964,1.1559 20.62773,1.12645 27.42476,-0.0565 l 0,2e-5 z"
     id="path4737"
     inkscape:connector-curvature="0" /><path
     style="fill-opacity:1;fill-rule:nonzero"
     d="M 445.75924,114.07846 C 438.96152,103.7174 419.50338,83.369 405.45065,71.925636 l -8.47432,-6.900775 9.70675,-5.040344 9.70676,-5.040344 20.47697,20.469702 20.47697,20.469702 -2.86922,6.120323 c -1.57807,3.36618 -3.77508,8.0842 -4.88224,10.4845 l -2.01302,4.36418 -1.82006,-2.77412 z"
     id="path4739"
     inkscape:connector-curvature="0" /><path
     style="fill-opacity:1;fill-rule:nonzero"
     d="m 490.75996,289.97405 c 2.79023,-17.8026 2.68505,-57.30874 -0.18146,-68.16039 -0.30031,-1.13689 -0.47602,-2.06708 -0.39046,-2.06708 0.0856,0 4.85653,1.57346 10.60215,3.49658 5.74562,1.92312 10.51813,3.49728 10.60559,3.49814 0.0874,8.3e-4 0.15716,13.09572 0.1549,29.09969 l -0.004,29.09814 -9.69528,3.43165 c -5.3324,1.88741 -10.09723,3.5807 -10.5885,3.76287 -0.70977,0.2632 -0.81305,-0.18035 -0.50284,-2.1596 l -3e-5,0 z"
     id="path4741"
     inkscape:connector-curvature="0" /><path
     style="fill-opacity:1;fill-rule:nonzero"
     d="m 220.3499,21.160533 c 0.12293,-0.53236 1.65457,-5.437001 3.40364,-10.899202 l 3.18012,-9.93127551 28.93914,-0.001336 28.93913,-0.001336 3.65533,10.27952982 c 2.01043,5.653742 3.53672,10.398136 3.39176,10.543097 -0.14496,0.144962 -2.7916,-0.04121 -5.88142,-0.413711 -12.01206,-1.448157 -28.54867,-1.989486 -41.63985,-1.363093 -12.47264,0.596797 -20.76535,1.432893 -23.10081,2.329093 -0.79397,0.304675 -1.04684,0.150235 -0.88704,-0.541767 z"
     id="path4743"
     inkscape:connector-curvature="0" /><path
     style="fill-opacity:1;fill-rule:nonzero"
     d="M 59.556658,106.62671 55.002012,97.844082 75.298979,77.543159 C 88.120307,64.719332 96.005635,57.288487 96.708284,57.367812 c 0.611786,0.06907 4.923476,1.937029 9.581526,4.151026 l 8.4692,4.02545 -6.56112,5.0709 c -8.502616,6.571425 -29.753195,27.78831 -37.409346,37.350032 -3.291161,4.11031 -6.139924,7.46673 -6.330584,7.45871 -0.190661,-0.008 -2.396246,-3.96677 -4.901302,-8.79722 z"
     id="path4745"
     inkscape:connector-curvature="0" /><path
     style="fill-opacity:1;fill-rule:nonzero"
     d="M 11.639255,290.82182 C 6.2171429,289.1053 1.4231056,287.58933 0.98583851,287.45301 0.36512215,287.25949 0.19080745,280.87167 0.19080745,258.31885 l 0,-28.8863 10.65341655,-3.82071 c 5.859378,-2.1014 10.732976,-3.74801 10.830217,-3.65915 0.09724,0.0889 -0.104492,0.90143 -0.448295,1.8057 -2.154373,5.66643 -2.470206,48.29303 -0.467443,63.08881 0.52086,3.84796 0.9002,7.01862 0.842978,7.04593 -0.05722,0.0273 -4.540315,-1.35479 -9.962426,-3.07131 z"
     id="path4747"
     inkscape:connector-curvature="0" /><path
     style="fill-opacity:1;fill-rule:nonzero"
     d="m 76.899642,438.607 -20.277499,-20.28493 4.28213,-9.13122 c 2.355171,-5.02217 4.48456,-9.49548 4.731975,-9.94068 0.296219,-0.53302 2.75744,1.96485 7.206952,7.31429 11.034635,13.2664 27.91012,29.3917 41.48512,39.64092 l 3.65228,2.7575 -9.76198,4.93103 c -5.36909,2.71206 -10.049862,4.9461 -10.401726,4.96452 -0.351864,0.0184 -9.764627,-9.09472 -20.917252,-20.25143 z"
     id="path4749"
     inkscape:connector-curvature="0" /><path
     style="fill-opacity:1;fill-rule:nonzero"
     d="m 225.67539,501.48925 c -2.02319,-5.613 -3.56949,-10.29638 -3.43622,-10.40752 0.13328,-0.11113 3.67685,0.21446 7.87462,0.72356 15.17379,1.84022 53.38092,0.91885 63.10526,-1.52181 1.34725,-0.33813 1.23546,0.18318 -2.2222,10.36222 l -3.64083,10.71828 -29.00105,0.16535 -29.00105,0.16536 -3.67853,-10.20544 z"
     id="path4751"
     inkscape:connector-curvature="0" /><path
     style="fill-opacity:1;fill-rule:nonzero"
     d="m 407.48567,452.35549 -10.89148,-5.12074 7.07533,-5.72155 c 14.88923,-12.04035 28.35168,-25.65166 39.29677,-39.7313 l 5.40713,-6.95567 5.46039,10.94195 5.46038,10.94195 -20.45852,20.38305 -20.45853,20.38305 -10.89147,-5.12074 z"
     id="path4753"
     inkscape:connector-curvature="0" /></svg>