<?xml version="1.0" ?><!DOCTYPE svg  PUBLIC '-//W3C//DTD SVG 1.1//EN'  'http://www.w3.org/Graphics/SVG/1.1/DTD/svg11.dtd'><svg height="321px" id="Layer_1" style="enable-background:new 0 0 311 321;" version="1.1" viewBox="0 0 311 321" width="311px" xml:space="preserve" xmlns="http://www.w3.org/2000/svg" xmlns:xlink="http://www.w3.org/1999/xlink"><style type="text/css">
	.st0{fill:#4DA316;}
</style><g><g><path class="st0" d="M223.3,82L190.8,103l101.1,61.6l-1-126.1l-29.7,19.1c-23.3-25.8-57.8-42.1-96.4-42.1     c-7.6,0-15.2,0.7-22.5,1.9v48.3c8.2-2.6,16.9-4.1,25.9-4.1C189.5,61.5,208.8,69.3,223.3,82z"/><path class="st0" d="M76.7,131.2l33.7,18.8l7-118.1L6.4,92l30.8,17.2c-11.8,32.7-10,70.8,8.1,104.9c3.6,6.8,7.7,13,12.2,18.9     l42.6-22.7c-6.1-5.9-11.5-12.9-15.7-20.9C74.4,170.5,72.3,149.9,76.7,131.2z"/><path class="st0" d="M191.7,232l-3.1-38.4L86.4,253.3L198,312.1l-2.8-35.2c33.8-8.3,64.5-31,82.8-64.9c3.6-6.7,6.6-13.7,8.9-20.6     l-42.5-22.9c-1.5,8.4-4.4,16.8-8.7,24.8C225.7,212,209.7,225.2,191.7,232z"/></g></g></svg>