<?xml version="1.0" encoding="UTF-8" standalone="no"?>
<svg
   xmlns:dc="http://purl.org/dc/elements/1.1/"
   xmlns:cc="http://creativecommons.org/ns#"
   xmlns:rdf="http://www.w3.org/1999/02/22-rdf-syntax-ns#"
   xmlns:svg="http://www.w3.org/2000/svg"
   xmlns="http://www.w3.org/2000/svg"
   xmlns:sodipodi="http://sodipodi.sourceforge.net/DTD/sodipodi-0.dtd"
   xmlns:inkscape="http://www.inkscape.org/namespaces/inkscape"
   enable-background="new 0 0 16 16"
   height="1024"
   id="Layer_1"
   version="1.0"
   viewBox="0 0 163.84 163.84"
   width="1024"
   xml:space="preserve"
   inkscape:version="0.91 r13725"
   sodipodi:docname="redisnav.svg"
   inkscape:export-filename="/home/ubuntu/develop/redis-navigator/src/resources/icons/1024x1024/redisnav_white_bg.png"
   inkscape:export-xdpi="90"
   inkscape:export-ydpi="90"><metadata
     id="metadata20"><rdf:RDF><cc:Work
         rdf:about=""><dc:format>image/svg+xml</dc:format><dc:type
           rdf:resource="http://purl.org/dc/dcmitype/StillImage" /><dc:title></dc:title></cc:Work></rdf:RDF></metadata><defs
     id="defs18"><defs
       id="defs5"><rect
         width="16"
         id="SVGID_1_"
         height="16"
         x="0"
         y="0" /></defs></defs><sodipodi:namedview
     pagecolor="#ffffff"
     bordercolor="#666666"
     borderopacity="1"
     objecttolerance="10"
     gridtolerance="10"
     guidetolerance="10"
     inkscape:pageopacity="1"
     inkscape:pageshadow="2"
     inkscape:window-width="2560"
     inkscape:window-height="1327"
     id="namedview16"
     showgrid="false"
     inkscape:zoom="0.29601545"
     inkscape:cx="512.10143"
     inkscape:cy="436.94585"
     inkscape:window-x="1920"
     inkscape:window-y="27"
     inkscape:window-maximized="1"
     inkscape:current-layer="Layer_1" /><path
     style="opacity:1;fill:#a21a14;fill-opacity:1"
     d="M 157.08968,20.342683 A 75.691283,17.250653 0 0 1 81.398355,37.593008 75.691283,17.250653 0 0 1 5.707175,20.342683 75.691283,17.250653 0 0 1 81.398355,3.09192 75.691283,17.250653 0 0 1 157.08968,20.342683 Z"
     id="path4811"
     inkscape:connector-curvature="0" /><path
     style="opacity:1;fill:#a21a14;fill-opacity:1"
     d="M 157.10188,64.982123 A 75.70346,17.181089 0 0 1 81.39835,82.163188 75.70346,17.181089 0 0 1 5.6949781,64.982123 75.70346,17.181089 0 0 1 81.39835,47.801058 75.70346,17.181089 0 0 1 157.10188,64.982123 Z"
     id="path4811-3"
     inkscape:connector-curvature="0" /><path
     style="opacity:1;fill:#a21a14;fill-opacity:1"
     d="M 157.08908,110.95413 A 75.786249,18.436822 0 0 1 81.302964,129.39092 75.786249,18.436822 0 0 1 5.5166837,110.95413 75.786249,18.436822 0 0 1 81.302964,92.517334 75.786249,18.436822 0 0 1 157.08908,110.95413 Z"
     id="path4811-6"
     inkscape:connector-curvature="0" /><path
     style="fill:#d72721;fill-opacity:1;stroke:none;stroke-opacity:1"
     inkscape:connector-curvature="0"
     id="path10"
     d="m 5.6604069,21.086274 0,26.823367 c 0,12.348705 33.9090801,22.371111 75.7380201,22.371111 41.828933,0 75.738023,-10.022406 75.738023,-22.371111 l 0,-26.823367 C 135.51856,36.11973 88.214837,36.723783 81.409327,36.723783 c -6.80566,0 -54.10939,-0.604015 -75.7489201,-15.637509" /><path
     style="fill:#d72721;fill-opacity:1;stroke:none;stroke-opacity:1"
     inkscape:connector-curvature="0"
     id="path10-3"
     d="m 5.6604074,65.733086 0,26.823366 c 0,12.348708 33.9090796,22.371108 75.7380206,22.371108 41.828932,0 75.738022,-10.0224 75.738022,-22.371108 l 0,-26.823366 c -21.61789,15.033456 -68.921613,15.637509 -75.727123,15.637509 -6.805659,0 -54.10939,-0.604015 -75.7489195,-15.637509" /><path
     style="fill:#d72721;fill-opacity:1;stroke:none;stroke-opacity:1"
     inkscape:connector-curvature="0"
     id="path10-6"
     d="m 5.6604106,111.74639 0,26.82336 c 0,12.3487 33.9090794,22.37111 75.7380204,22.37111 41.828929,0 75.738019,-10.02241 75.738019,-22.37111 l 0,-26.82336 c -21.61789,15.03345 -68.92161,15.63751 -75.72712,15.63751 -6.805659,0 -54.10939,-0.60402 -75.7489194,-15.63751" /><g
     id="g4706"
     transform="translate(-6.3756634,5.4295562)"><ellipse
       ry="32.450333"
       rx="32.53133"
       id="circle4991"
       style="fill:#0670ac;fill-opacity:1"
       cy="121.77174"
       cx="136.9429" /><g
       transform="matrix(1.0203207,0,0,1.0203207,104.17443,89.238229)"
       id="Land"
       style="fill:#f2cf51;fill-opacity:1"><g
         id="g4994"
         style="fill:#f2cf51;fill-opacity:1"><path
           inkscape:connector-curvature="0"
           d="m 43.545,11.479 c 0.496,0.124 1.165,-0.242 1.297,0.59 0.149,0.938 0.606,1.712 1.192,2.477 0.818,1.067 0.298,2.146 -1.031,2.387 -0.209,0.039 -0.42,0.074 -0.632,0.09 -1.11,0.082 -1.154,0.146 -1.298,1.261 -0.097,0.763 0.327,1.168 0.865,1.575 0.497,0.376 0.896,0.083 1.232,-0.159 0.347,-0.249 0.635,-0.625 0.852,-1.001 0.613,-1.061 1.32,-2.088 2.51,-2.451 1.026,-0.313 2.169,-0.742 3.16,0.048 0.438,-0.247 0.965,-0.564 1.336,-0.436 0.822,0.286 1.506,0.813 1.942,1.674 0.274,0.542 0.851,0.932 1.206,1.301 0.506,-0.47 0.813,-0.98 1.22,-1.081 0.727,-0.179 1.518,-0.168 2.273,-0.114 0.271,0.019 0.647,0.347 0.734,0.613 0.084,0.255 -0.124,0.621 -0.247,0.921 -0.054,0.129 -0.22,0.212 -0.449,0.42 0.661,0.1 1.154,0.189 1.651,0.245 0.091,0.011 0.169,0.025 0.251,0.038 -0.539,-1.313 -1.163,-2.606 -1.893,-3.87 -1.269,-2.196 -2.764,-4.178 -4.43,-5.948 -0.355,0.47 -0.887,0.832 -1.543,0.97 -0.801,0.168 -1.463,0.003 -2.159,-0.262 -0.498,-0.189 -0.83,-0.058 -1.278,0.282 -0.724,0.548 -1.593,0.912 -2.431,1.29 -0.191,0.087 -0.575,-0.006 -0.744,-0.157 -0.563,-0.507 -1.079,-1.066 -1.588,-1.629 -0.184,-0.202 -0.296,-0.469 -0.47,-0.753 -0.544,0.598 -1.018,1.119 -1.528,1.679 z m -25.06,9.56 c 0.482,-0.332 0.944,-0.827 1.185,-1.354 0.86,-1.882 2.736,-2.612 4.169,-3.84 0.164,-0.14 0.446,-0.155 0.679,-0.199 0.504,-0.097 1.208,-0.005 1.464,-0.304 0.26,-0.305 0.079,-0.986 0.094,-1.503 0.03,-1.073 0.461,-1.516 1.507,-1.534 0.453,-0.008 0.906,-0.007 1.359,0.01 0.978,0.034 1.178,0.312 1.019,1.271 -0.031,0.185 0.079,0.476 0.224,0.582 0.122,0.09 0.389,-0.02 0.591,-0.041 C 30.737,13.911 30.699,13.694 30.659,13.478 30.574,13.005 30.406,12.53 30.423,12.06 30.442,11.515 30.356,11.105 29.944,10.702 29.6,10.365 29.319,9.91 29.154,9.455 28.993,9.015 28.767,8.836 28.339,8.898 27.589,9.005 27.105,8.685 26.847,7.997 c -0.2,-0.533 -0.602,-0.67 -1.13,-0.702 -0.918,-0.056 -1.302,0.658 -1.43,1.26 -0.321,1.514 -1.562,2.316 -2.38,3.435 -0.518,0.707 -1.497,0.497 -1.646,-0.353 C 20.133,10.908 19.765,10.583 19.143,10.356 18.746,10.211 18.372,9.994 18,9.785 16.983,9.215 16.778,8.087 17.648,7.334 c 1.277,-1.105 2.693,-1.886 4.515,-1.528 0.348,0.067 1.013,-0.183 1.126,-0.455 0.45,-1.084 1.471,-1.523 2.258,-2.21 0.585,-0.512 1.596,-0.378 2.144,0.116 0.665,0.6 0.517,1.18 0.059,1.831 -0.148,0.211 -0.226,0.722 -0.105,0.823 0.275,0.233 0.828,0.52 1.028,0.395 C 29.378,5.869 29.99,5.279 30.611,4.716 30.669,4.663 30.55,4.388 30.482,4.23 30.035,3.211 29.185,2.759 28.157,2.472 27.01,2.153 26.778,1.227 27.761,0.567 27.956,0.436 28.164,0.323 28.375,0.214 27.271,0.339 26.17,0.519 25.075,0.763 24.104,0.972 23.792,1.682 24.197,2.565 24.436,3.084 24.519,3.63 23.995,4.01 23.466,4.395 22.936,4.137 22.569,3.733 22.326,3.464 22.264,3.033 22.112,2.68 22,2.423 21.872,2.174 21.752,1.92 21.441,2.086 20.907,2.204 20.859,2.426 20.611,3.594 19.597,3.78 18.77,4.205 18.629,4.276 18.326,4.288 18.267,4.206 18.167,4.063 18.141,3.812 18.187,3.633 18.233,3.452 18.281,3.271 18.333,3.087 17.549,3.458 16.771,3.855 16.008,4.296 8.543,8.601 3.481,15.463 1.268,23.136 c 0.79,1.276 1.867,2.374 2.739,3.606 0.366,0.517 0.516,1.187 0.771,1.783 0.141,0.332 0.212,0.749 0.457,0.971 0.887,0.805 1.939,1.278 3.15,1.413 0.458,0.05 0.944,0.187 1.337,0.42 1.247,0.738 2.457,1.542 3.668,2.312 0.461,-1.007 0.365,-1.257 -0.689,-1.738 -0.701,-0.32 -0.957,-0.89 -0.815,-1.643 0.052,-0.274 0.104,-0.548 0.2,-1.053 -0.402,0.332 -0.616,0.515 -0.836,0.688 -1.371,1.085 -2.835,0.636 -3.411,-1.007 -0.55,-1.566 0.03,-2.899 0.901,-4.094 1.366,-1.874 3.568,-1.282 5.439,-1.646 0.252,-0.049 0.566,0.128 0.827,0.253 0.302,0.144 0.577,0.345 0.969,0.586 0.149,-1.648 1.418,-2.196 2.51,-2.948 z m -3.032,-6.668 c 0.021,-0.221 0.515,-0.557 0.791,-0.556 0.506,0.002 1.144,0.138 1.133,0.814 -0.004,0.229 -0.494,0.45 -0.762,0.675 -0.622,-0.225 -1.231,-0.245 -1.162,-0.933 z M 50.136,8.604 c 0.59,0.088 1.01,0.234 1.236,0.812 0.232,0.591 0.596,0.448 0.906,0.089 C 52.714,9 52.932,8.412 52.885,7.755 52.164,7.135 51.418,6.551 50.651,6.002 c -0.341,0.31 -0.701,0.6 -1.059,0.904 -0.261,0.224 -0.597,0.769 -0.503,0.918 0.221,0.353 0.655,0.721 1.047,0.78 z m 13.791,21.099 c -0.025,-0.044 -0.053,-0.088 -0.078,-0.132 -0.494,-0.841 -0.835,-1.772 -1.231,-2.669 -0.117,-0.266 -0.261,-0.548 -0.268,-0.825 -0.006,-0.29 0.099,-0.805 0.227,-0.828 0.224,-0.042 0.49,-0.005 0.727,0.081 -0.18,-0.842 -0.397,-1.679 -0.647,-2.512 -0.238,0.327 -0.594,0.556 -1.072,0.662 -1.357,0.301 -2.702,0.206 -4.001,-0.301 -0.609,-0.238 -1.163,-0.303 -1.72,0.142 -0.611,0.488 -1.288,0.437 -1.957,0.117 -0.313,-0.148 -0.591,-0.406 -0.916,-0.483 -1.095,-0.263 -1.788,-0.849 -1.989,-2.013 -0.035,-0.203 -0.49,-0.499 -0.724,-0.476 -1.609,0.158 -3.208,0.533 -4.814,0.561 -1.667,0.027 -2.34,1.159 -2.895,2.317 -0.387,0.807 -0.861,1.425 -1.51,1.993 -1.224,1.074 -1.867,2.404 -1.729,4.089 0.052,0.622 -0.109,1.259 -0.129,1.891 -0.017,0.548 -0.171,1.229 0.085,1.622 0.836,1.279 1.82,2.464 2.778,3.661 0.148,0.187 0.465,0.362 0.687,0.345 1.182,-0.097 2.392,-0.129 3.527,-0.43 1.167,-0.311 2.217,-0.592 3.182,0.403 0.139,0.143 0.367,0.211 0.565,0.281 1.458,0.517 1.586,0.646 1.534,2.178 -0.032,0.959 0.176,1.757 0.675,2.624 1.065,1.846 1.742,3.806 0.723,5.994 -0.265,0.567 -0.273,1.471 -0.004,2.027 0.665,1.374 0.884,2.82 1.189,4.278 0.046,0.22 0.108,0.436 0.171,0.652 C 61.147,48.32 64.591,39.01 63.927,29.703 Z M 34.519,42.161 c -1.238,-0.236 -2.28,-0.849 -3.416,-1.272 -1.015,-0.378 -1.748,-0.977 -2.004,-2.086 -0.198,-0.863 -0.809,-1.283 -1.631,-1.578 -0.781,-0.28 -1.548,-0.687 -2.215,-1.181 -0.904,-0.669 -1.699,-1.442 -2.979,-1.211 -0.322,0.059 -0.788,-0.085 -1.035,-0.307 -0.811,-0.729 -1.698,-0.798 -2.45,-0.134 -0.708,0.625 -2.131,0.925 -1.451,2.473 0.147,0.336 -0.063,0.887 -0.229,1.288 -0.201,0.487 -0.516,0.932 -0.811,1.376 -0.926,1.392 -0.76,2.845 -0.126,4.246 0.525,1.161 1.186,2.267 1.855,3.354 0.279,0.452 0.677,0.904 1.131,1.162 1.593,0.905 2.446,2.164 2.267,4.048 -0.05,0.529 -0.045,1.07 0,1.601 0.11,1.293 0.291,2.581 0.378,3.875 0.043,0.627 -0.057,1.266 -0.104,1.898 -0.015,0.209 -0.121,0.422 -0.094,0.621 0.096,0.68 0.198,1.36 0.322,2.037 1.146,0.38 2.312,0.696 3.493,0.945 0.302,-1.112 0.934,-2.177 1.77,-2.816 0.245,-0.188 0.451,-0.533 0.511,-0.837 0.135,-0.69 0.481,-1.148 1.105,-1.46 0.272,-0.137 0.576,-0.356 0.702,-0.616 0.478,-0.995 1.081,-1.987 1.278,-3.047 0.249,-1.341 1.044,-1.992 2.159,-2.413 1.323,-0.499 1.841,-1.022 1.766,-2.394 -0.095,-1.729 0.408,-3.18 1.505,-4.492 0.396,-0.475 0.688,-1.154 0.192,-1.683 -0.535,-0.571 -1.19,-1.263 -1.889,-1.397 z m 7.24,-37.81 c 0.912,-0.347 1.832,-0.671 2.74,-1.029 0.304,-0.12 0.632,-0.223 0.934,-0.355 -3.977,-1.835 -8.299,-2.85 -12.688,-2.956 0.354,0.088 0.725,0.111 1.113,0.111 1.75,-0.002 2.285,0.762 1.99,2.486 -0.187,1.093 -0.203,2.225 -0.206,3.339 -0.001,0.665 0.409,1.146 1.068,1.346 0.609,0.185 0.913,-0.233 1.25,-0.634 0.799,-0.95 1.67,-1.796 2.994,-1.969 0.279,-0.036 0.532,-0.236 0.805,-0.339 z"
           style="fill:#f2cf51;fill-opacity:1"
           id="path4996" /></g></g></g><path
     sodipodi:type="star"
     style="opacity:1;fill:#ffffff;fill-opacity:1"
     id="path4712"
     sodipodi:sides="5"
     sodipodi:cx="82.157875"
     sodipodi:cy="19.523211"
     sodipodi:r1="18.377419"
     sodipodi:r2="9.1887093"
     sodipodi:arg1="-1.5707963"
     sodipodi:arg2="-0.9424778"
     inkscape:flatsided="false"
     inkscape:rounded="0"
     inkscape:randomized="0"
     d="m 82.157876,1.145792 5.400987,10.943597 12.076976,1.754887 -8.738982,8.518402 2.062993,12.028177 -10.801975,-5.678935 -10.801976,5.678934 2.062994,-12.028176 -8.738981,-8.518403 12.076975,-1.754886 z"
     inkscape:transform-center-y="-1.4047088"
     transform="matrix(2.2885961,0,0,0.8004554,-106.40883,5.2088977)" /></svg>