<?xml version="1.0" ?><svg enable-background="new 0 0 64 64" id="Layer_1" version="1.1" viewBox="0 0 64 64" xml:space="preserve" xmlns="http://www.w3.org/2000/svg" xmlns:xlink="http://www.w3.org/1999/xlink"><g><g><path d="M50.091,29.078c-7.216,0-13.086,5.87-13.086,13.086s5.87,13.086,13.086,13.086s13.086-5.87,13.086-13.086    S57.306,29.078,50.091,29.078z M50.091,51.792c-5.308,0-9.628-4.319-9.628-9.628s4.319-9.628,9.628-9.628s9.628,4.319,9.628,9.628    S55.399,51.792,50.091,51.792z" fill="#2F7ABF"/><polygon fill="#2F7ABF" points="56.097,40.435 56.097,43.894 51.82,43.894 51.82,48.171 48.361,48.171 48.361,43.894     44.084,43.894 44.084,40.435 48.361,40.435 48.361,36.158 51.82,36.158 51.82,40.435   "/></g><g><path d="M36.72,50.683H7.747c-1.3,0-2.357-1.057-2.357-2.357v-32.67c0-0.063,0.002-0.126,0.009-0.187    c0.006-0.061,0.013-0.122,0.022-0.183c0.069-0.405,0.241-0.778,0.491-1.087c0.43-0.537,1.092-0.881,1.835-0.881h8.491    c0.629,0,1.222,0.246,1.668,0.691l4.297,4.297c1.307,1.309,3.047,2.029,4.897,2.029h24.485c0.433,0,0.839,0.118,1.189,0.324    c0.698,0.407,1.168,1.166,1.168,2.033v4.085c1.638,0.41,3.175,1.077,4.567,1.953v-6.038c0-0.57-0.07-1.126-0.2-1.657    c-0.446-1.805-1.601-3.336-3.153-4.273c-0.383-0.231-0.789-0.428-1.215-0.581c-0.737-0.267-1.529-0.413-2.357-0.413H27.1    c-0.629,0-1.222-0.246-1.668-0.691l-1.777-1.777l-2.52-2.522c-0.459-0.457-0.968-0.842-1.516-1.15    c-1.022-0.572-2.177-0.878-3.381-0.878H7.747c-0.828,0-1.62,0.146-2.357,0.413C4.902,9.341,4.439,9.57,4.009,9.848    c-1.466,0.944-2.557,2.429-2.986,4.169c-0.015,0.059-0.028,0.12-0.041,0.181c-0.052,0.237-0.091,0.481-0.118,0.728    c-0.006,0.057-0.011,0.115-0.017,0.174c-0.002,0.007-0.004,0.015-0.002,0.024c-0.009,0.106-0.015,0.211-0.019,0.318v0.011    c-0.002,0.057-0.004,0.117-0.004,0.176v32.696c0,2.453,1.283,4.614,3.214,5.843c1.072,0.685,2.346,1.081,3.71,1.081h33.39    C39.376,54.041,37.872,52.485,36.72,50.683z" fill="#3C4752"/></g></g></svg>