<?xml version="1.0" ?><!DOCTYPE svg  PUBLIC '-//W3C//DTD SVG 1.1//EN'  'http://www.w3.org/Graphics/SVG/1.1/DTD/svg11.dtd'><svg enable-background="new 0 0 512 512" height="512px" id="Layer_1" version="1.1" viewBox="0 0 512 512" width="512px" xml:space="preserve" xmlns="http://www.w3.org/2000/svg" xmlns:xlink="http://www.w3.org/1999/xlink"><g><path d="M311.516,217.578c0,0-51.547,114.703-55.031,125.875s6.867,11.234,13.781,11.234   c6.305,0,16.18-1.281,21.961-3.267c0.742-0.233,1.492-0.358,2.258-0.358c1.109,0,2.22,0.266,3.203,0.78   c1.688,0.859,2.953,2.375,3.5,4.188l2.517,19.469c0.813,2.719-0.086,5.656-2.272,7.438C287.977,393.984,244.016,400,230.406,400   c-10.125,0-15.656-2.672-19.594-7.984c-5.445-7.281-3.867-21.172-1.586-28.891l21.539-88.156   c9.234-22.156-28.328-21.359-48.055-22.156c-3.742-0.156-6.711-3.234-6.711-7v-16.359c0-3.594,2.734-6.609,6.313-6.953   c0,0,122.461-14.5,122.695-14.5c2.188,0,4.267,1.031,5.578,2.781C312.063,212.734,312.414,215.313,311.516,217.578z M288,176   c-17.68,0-32-14.297-32-32.016C256,126.297,270.32,112,288,112s32,14.297,32,31.984C320,161.703,305.68,176,288,176z M256,16   C123.453,16,16,123.453,16,256s107.453,240,240,240s240-107.453,240-240S388.547,16,256,16z M256,449.594   C149.25,449.594,62.398,362.75,62.398,256S149.25,62.406,256,62.406S449.602,149.25,449.602,256S362.75,449.594,256,449.594z" fill="#4D4D4D"/></g></svg>