<?xml version="1.0" encoding="UTF-8" standalone="no"?>
<svg
   xmlns:dc="http://purl.org/dc/elements/1.1/"
   xmlns:cc="http://creativecommons.org/ns#"
   xmlns:rdf="http://www.w3.org/1999/02/22-rdf-syntax-ns#"
   xmlns:svg="http://www.w3.org/2000/svg"
   xmlns="http://www.w3.org/2000/svg"
   xmlns:sodipodi="http://sodipodi.sourceforge.net/DTD/sodipodi-0.dtd"
   xmlns:inkscape="http://www.inkscape.org/namespaces/inkscape"
   id="Layer_1"
   version="1.1"
   viewBox="0 0 128 128"
   xml:space="preserve"
   inkscape:version="0.91 r13725"
   sodipodi:docname="outline_padlock_locked.svg"
   width="128"
   height="128"><metadata
     id="metadata13"><rdf:RDF><cc:Work
         rdf:about=""><dc:format>image/svg+xml</dc:format><dc:type
           rdf:resource="http://purl.org/dc/dcmitype/StillImage" /><dc:title></dc:title></cc:Work></rdf:RDF></metadata><defs
     id="defs11" /><sodipodi:namedview
     pagecolor="#ffffff"
     bordercolor="#666666"
     borderopacity="1"
     objecttolerance="10"
     gridtolerance="10"
     guidetolerance="10"
     inkscape:pageopacity="0"
     inkscape:pageshadow="2"
     inkscape:window-width="1920"
     inkscape:window-height="975"
     id="namedview9"
     showgrid="false"
     inkscape:zoom="4.9166667"
     inkscape:cx="69.387301"
     inkscape:cy="64.271186"
     inkscape:window-x="1680"
     inkscape:window-y="27"
     inkscape:window-maximized="1"
     inkscape:current-layer="Layer_1" /><g
     id="g3"
     transform="matrix(2.8650032,0,0,2.6666667,-4.6225208,4.75e-6)"><path
       d="m 37.5,18.5 -1.3,0 0,-6.3 C 36.2,5.4 30.7,0 24,0 l 0,0 C 17.3,0 11.8,5.4 11.8,12.2 l 0,6.3 -1.3,0 c -2.2,0 -4,1.8 -4,4 l 0,21.5 c 0,2.2 1.8,4 4,4 l 26.9,0 c 2.2,0 4,-1.8 4,-4 l 0,-21.5 c 0.1,-2.2 -1.7,-4 -3.9,-4 z M 13.8,12.2 C 13.8,6.6 18.4,2 24,2 29.6,2 34.2,6.6 34.2,12.2 l 0,6.3 -20.4,0 0,-6.3 z M 39.5,44 c 0,1.1 -0.9,2 -2,2 l -27,0 c -1.1,0 -2,-0.9 -2,-2 l 0,-21.5 c 0,-1.1 0.9,-2 2,-2 25.2,0 22.9,0 26.9,0 1.1,0 2,0.9 2,2 l 0,21.5 z"
       id="path5"
       inkscape:connector-curvature="0" /><path
       d="m 24,27.6 c -2.3,0 -4.2,1.9 -4.2,4.2 0,2 1.4,3.6 3.2,4.1 l 0,5.3 c 0,0.6 0.4,1 1,1 0.6,0 1,-0.4 1,-1 l 0,-5.3 c 1.8,-0.5 3.2,-2.1 3.2,-4.1 0,-2.3 -1.9,-4.2 -4.2,-4.2 z m 0,6.4 c -1.2,0 -2.2,-1 -2.2,-2.2 0,-1.2 1,-2.2 2.2,-2.2 1.2,0 2.2,1 2.2,2.2 0,1.2 -1,2.2 -2.2,2.2 z"
       id="path7"
       inkscape:connector-curvature="0" /></g></svg>