<?xml version="1.0" ?><!DOCTYPE svg  PUBLIC '-//W3C//DTD SVG 1.1//EN'  'http://www.w3.org/Graphics/SVG/1.1/DTD/svg11.dtd'><svg enable-background="new 0 0 512 512" height="512px" id="Layer_1" version="1.1" viewBox="0 0 512 512" width="512px" xml:space="preserve" xmlns="http://www.w3.org/2000/svg" xmlns:xlink="http://www.w3.org/1999/xlink"><g><g><g><path d="M424.171,68.121l25.273-29.95c4.515-5.189,2.594-9.523-4.277-9.61l-132.518-1.759     c-6.883-0.086-10.366,5.058-7.742,11.414l49.927,120.829c2.631,6.376,7.48,6.618,10.767,0.593l19.727-35.578     c28.989,28.19,47.021,67.615,47.021,111.243c0,8.619-0.734,17.062-2.07,25.285l66.474,11.417     c1.992-11.941,3.036-24.19,3.036-36.702C499.788,168.699,470.518,108.909,424.171,68.121z"/></g><g><path d="M58.392,189.146l-38.582-6.949c-6.761-1.318-9.532,2.508-6.167,8.512l64.681,115.666     c3.353,6.001,9.553,6.46,13.755,0.984l79.73-103.59c4.19-5.452,1.993-9.807-4.891-9.63l-40.657,0.68     c9.925-39.184,35.05-74.496,72.858-96.31c7.456-4.31,15.13-7.895,22.923-10.841l-23.317-63.285     c-11.324,4.244-22.473,9.455-33.293,15.724C107.722,73.376,70.572,128.59,58.392,189.146z"/></g><g><path d="M345.97,445.495l13.29,36.875c2.231,6.532,6.92,7.039,10.463,1.104l67.833-113.799c3.531-5.936,0.835-11.5-5.977-12.419     l-129.595-17.311c-6.836-0.9-9.479,3.168-5.905,9.061l20.925,34.877c-38.909,10.994-82.074,6.86-119.841-14.995     c-7.453-4.312-14.39-9.175-20.835-14.447l-43.186,51.806c9.347,7.719,19.428,14.751,30.257,21.021     C221.065,460.604,287.454,465.197,345.97,445.495z"/></g></g></g></svg>