<?xml version="1.0" ?><svg data-name="Layer 1" id="Layer_1" viewBox="0 0 128 128" xmlns="http://www.w3.org/2000/svg"><title/><g><path d="M40.46974,59.86139V37.854a23.53483,23.53483,0,1,1,47.06967,0V59.86139h14.31913V37.854a37.854,37.854,0,1,0-75.70793,0V59.86139Z" style="fill: #dbdbdb"/><path d="M59.23155,14.31913A23.5615,23.5615,0,0,0,35.69669,37.854V59.86139h4.773V37.854A23.568,23.568,0,0,1,61.61808,14.43963,23.6851,23.6851,0,0,0,59.23155,14.31913Z" style="fill: #c4c6c8"/><path d="M64.0046,0c-.80236,0-1.59657.03333-2.38652.0825A37.85045,37.85045,0,0,1,97.08549,37.854V59.86139h4.773V37.854A37.85394,37.85394,0,0,0,64.0046,0Z" style="fill: #c4c6c8"/><rect height="71.8746" rx="7.19841" ry="7.19841" style="fill: #edcb48" width="95.99995" x="16.00002" y="56.12536"/><path d="M105.18157,56.12527h-1.38774a8.98775,8.98775,0,0,1,1.34256,4.76587l.00005,62.343A8.98775,8.98775,0,0,1,103.79389,128h1.38774C108.94729,128,112,124.59741,112,120.40027V63.72488C112,59.52786,108.94729,56.12527,105.18157,56.12527Z" style="fill: #e3bc3d"/><path d="M76.14594,84.99851A12.14584,12.14584,0,1,0,57.40266,95.0941a3.81881,3.81881,0,0,1,1.77755,3.20907V108.291a2.878,2.878,0,0,0,2.89189,2.86383H65.928a2.878,2.878,0,0,0,2.89189-2.86383V98.30337a3.74378,3.74378,0,0,1,1.7174-3.17094A11.985,11.985,0,0,0,76.14594,84.99851Z" style="fill: #4f5144"/></g></svg>