<?xml version="1.0" ?><svg data-name="Layer 1" id="Layer_1" viewBox="0 0 128 128" xmlns="http://www.w3.org/2000/svg"><title/><g><path d="M89.23939,40.30138h10.9194a1.6998,1.6998,0,0,0,1.6998-1.6998v0c0-21.31415-17.282-39.00229-38.59228-38.59466a37.85421,37.85421,0,0,0-37.11574,37.847V59.86134H40.46973V38.3889c0-13.16637,10.77412-24.289,23.93861-24.06647a23.56235,23.56235,0,0,1,23.1311,23.53149v.74752A1.7,1.7,0,0,0,89.23939,40.30138Z" style="fill: #dbdbdb"/><path d="M59.23155,14.319a23.56154,23.56154,0,0,0-23.5349,23.5349V59.86132H40.4697V37.85389A23.568,23.568,0,0,1,61.61807,14.43948,23.68514,23.68514,0,0,0,59.23155,14.319Z" style="fill: #c4c6c8"/><path d="M101.8586,38.60156c0-21.1658-17.04439-38.74674-38.15-38.59146C63.0075.017,62.31007.0392,61.61806.08237A37.85052,37.85052,0,0,1,97.08554,37.85391l.01044,2.44747h3.06279A1.69986,1.69986,0,0,0,101.8586,38.60156Z" style="fill: #c4c6c8"/><rect height="71.87472" rx="7.19842" ry="7.19842" style="fill: #edcb48" width="95.99998" x="16.00001" y="56.12527"/><path d="M76.14594,84.99848a12.14584,12.14584,0,1,0-18.74328,10.0956,3.81881,3.81881,0,0,1,1.77755,3.20908V108.291a2.878,2.878,0,0,0,2.89189,2.86383H65.928a2.878,2.878,0,0,0,2.89189-2.86383V98.30336a3.74379,3.74379,0,0,1,1.7174-3.17094A11.985,11.985,0,0,0,76.14594,84.99848Z" style="fill: #4f5144"/><path d="M105.1816,56.12525h-1.38774a8.98775,8.98775,0,0,1,1.34256,4.76587l.00005,62.343A8.98775,8.98775,0,0,1,103.79392,128h1.38774C108.94732,128,112,124.59742,112,120.40028V63.72486C112,59.52784,108.94732,56.12525,105.1816,56.12525Z" style="fill: #e3bc3d"/></g></svg>