<svg width="1451.34" height="1451.34" xmlns="http://www.w3.org/2000/svg">

 <g>
  <title>background</title>
  <rect fill="none" id="canvas_background" height="402" width="582" y="-1" x="-1"/>
 </g>
 <g>
  <title>Layer 1</title>
  <path id="svg_1" fill="#666666" d="m1381.691,1058.94c-76.136,39.689 -470.554,201.855 -554.521,245.624c-83.974,43.803 -130.616,43.376 -196.949,11.664c-66.333,-31.713 -486.059,-201.251 -561.667,-237.402c-37.793,-18.051 -57.659,-33.302 -57.659,-47.7l0,-144.213c0,0 546.428,-118.956 634.649,-150.607c88.218,-31.647 118.815,-32.789 193.887,-5.286c75.082,27.503 523.964,108.488 598.158,135.662c0,0 -0.033,128.801 -0.033,142.167c0.01,14.266 -17.108,29.911 -55.865,50.091z"/>
  <path id="svg_2" fill="#cccccc" d="m1381.691,914.694c-76.136,39.673 -470.554,201.856 -554.521,245.624c-83.974,43.786 -130.616,43.359 -196.949,11.646c-66.341,-31.694 -486.058,-201.266 -561.666,-237.385c-75.609,-36.135 -77.193,-61.017 -2.92,-90.092c74.265,-29.092 491.689,-192.868 579.918,-224.52c88.209,-31.634 118.816,-32.794 193.887,-5.283c75.079,27.499 467.139,183.56 541.335,210.735c74.204,27.192 77.053,49.585 0.916,89.275z"/>
  <path id="svg_3" fill="#7f7f7f" d="m1381.691,823.782c-76.136,39.689 -470.554,201.856 -554.521,245.642c-83.974,43.769 -130.616,43.343 -196.949,11.629c-66.342,-31.695 -486.059,-201.25 -561.667,-237.385c-37.793,-18.067 -57.659,-33.285 -57.659,-47.684l0,-144.238c0,0 546.428,-118.95 634.649,-150.602c88.218,-31.643 118.815,-32.794 193.887,-5.291c75.082,27.499 523.964,108.476 598.158,135.655c0,0 -0.033,128.799 -0.033,142.183c0.01,14.25 -17.108,29.893 -55.865,50.091z"/>
  <path id="svg_4" fill="#cccccc" d="m1381.691,679.523c-76.136,39.685 -470.554,201.852 -554.521,245.637c-83.974,43.785 -130.616,43.343 -196.949,11.646c-66.341,-31.695 -486.058,-201.271 -561.666,-237.397c-75.609,-36.131 -77.193,-61.005 -2.92,-90.102c74.265,-29.074 491.689,-192.854 579.918,-224.497c88.209,-31.643 118.816,-32.794 193.887,-5.291c75.079,27.498 467.139,183.543 541.335,210.727c74.204,27.191 77.053,49.591 0.916,89.277z"/>
  <path id="svg_5" fill="#999999" d="m1381.691,579.889c-76.136,39.685 -470.554,201.861 -554.521,245.645c-83.974,43.785 -130.616,43.343 -196.949,11.647c-66.341,-31.697 -486.058,-201.271 -561.666,-237.398c-37.793,-18.067 -57.659,-33.298 -57.659,-47.687l0,-144.23c0,0 546.428,-118.951 634.649,-150.594c88.218,-31.652 118.815,-32.794 193.887,-5.292c75.082,27.499 523.964,108.476 598.158,135.655c0,0 -0.033,128.8 -0.033,142.174c0.009,14.243 -17.109,29.882 -55.866,50.08z"/>
  <path id="svg_6" fill="#cccccc" d="m1381.691,435.634c-76.136,39.685 -470.554,201.86 -554.521,245.642c-83.974,43.773 -130.616,43.342 -196.949,11.643c-66.333,-31.706 -486.059,-201.259 -561.667,-237.39c-75.609,-36.132 -77.193,-61.014 -2.92,-90.102c74.266,-29.088 491.69,-192.847 579.919,-224.498c88.209,-31.652 118.816,-32.794 193.887,-5.287c75.079,27.503 467.139,183.548 541.335,210.731c74.204,27.171 77.053,49.583 0.916,89.261z"/>
  <polygon id="svg_7" points="911.195,296.749 787.571,309.578 759.89,376.168 715.19,301.863 572.443,289.033 678.956,250.62   647.003,191.659 746.72,230.657 840.743,199.877 815.328,260.85 " fill="#FFFFFF"/>
  <polygon id="svg_8" points="752.509,619.808 521.786,524.113 852.398,473.375 " fill="#FFFFFF"/>
  <ellipse id="svg_9" ry="68.495" rx="176.704" fill="#FFFFFF" cy="402.254" cx="432.636"/>
  <polygon id="svg_10" points="1057.292,314.947 1252.957,392.274 1057.456,469.517 " fill="#791514"/>
  <polygon id="svg_11" points="840.825,400.575 1057.292,314.947 1057.456,469.517 1036.235,477.818 " fill="#AD2524"/>
 </g>
</svg>