<?xml version="1.0" ?><!DOCTYPE svg  PUBLIC '-//W3C//DTD SVG 1.1//EN'  'http://www.w3.org/Graphics/SVG/1.1/DTD/svg11.dtd'><svg enable-background="new 0 0 32 32" height="32px" id="Layer_1" version="1.1" viewBox="0 0 32 32" width="32px" xml:space="preserve" xmlns="http://www.w3.org/2000/svg" xmlns:xlink="http://www.w3.org/1999/xlink"><g><path d="M16,0C7.2,0,0,7.2,0,16s7.2,16,16,16s16-7.2,16-16S24.8,0,16,0z" fill="#2D82C7"/><rect fill="#EEEEEE" height="16" width="2" x="16" y="11"/><polygon fill="#EEEEEE" points="16,27 14,27 14,13 12,11 14,11 16,11  "/><path d="M18,7c0-1.1-0.9-2-2-2v4C17.1,9,18,8.1,18,7z" fill="#EEEEEE"/><path d="M14,7c0,1.1,0.8,2,1.9,2H16V5h-0.1C14.8,5,14,5.9,14,7z" fill="#EEEEEE"/></g></svg>