<?xml version="1.0" encoding="UTF-8" standalone="no"?>
<svg
   xmlns:dc="http://purl.org/dc/elements/1.1/"
   xmlns:cc="http://creativecommons.org/ns#"
   xmlns:rdf="http://www.w3.org/1999/02/22-rdf-syntax-ns#"
   xmlns:svg="http://www.w3.org/2000/svg"
   xmlns="http://www.w3.org/2000/svg"
   xmlns:sodipodi="http://sodipodi.sourceforge.net/DTD/sodipodi-0.dtd"
   xmlns:inkscape="http://www.inkscape.org/namespaces/inkscape"
   enable-background="new 0 0 100 100"
   height="100px"
   id="Layer_1"
   version="1.1"
   viewBox="0 0 100 100"
   width="100px"
   xml:space="preserve"
   inkscape:version="0.91 r13725"
   sodipodi:docname="ol_infinity.svg"><metadata
     id="metadata4255"><rdf:RDF><cc:Work
         rdf:about=""><dc:format>image/svg+xml</dc:format><dc:type
           rdf:resource="http://purl.org/dc/dcmitype/StillImage" /><dc:title></dc:title></cc:Work></rdf:RDF></metadata><defs
     id="defs4253" /><sodipodi:namedview
     pagecolor="#ffffff"
     bordercolor="#666666"
     borderopacity="1"
     objecttolerance="10"
     gridtolerance="10"
     guidetolerance="10"
     inkscape:pageopacity="0"
     inkscape:pageshadow="2"
     inkscape:window-width="2560"
     inkscape:window-height="1311"
     id="namedview4251"
     showgrid="false"
     inkscape:zoom="8.05"
     inkscape:cx="8.7577643"
     inkscape:cy="49.751553"
     inkscape:window-x="1920"
     inkscape:window-y="27"
     inkscape:window-maximized="1"
     inkscape:current-layer="Layer_1" /><path
     d="m 74.534106,30 c -9.502338,0 -16.387302,6.994086 -22.452195,13.28147 l 5.612545,5.669389 c 5.250868,-5.444664 10.681063,-11.065756 16.83965,-11.065756 7.391714,0 13.406235,5.883272 13.406235,13.114897 0,7.231625 -6.014521,13.114897 -13.406235,13.114897 -6.556533,0 -12.240607,-6.006477 -17.736287,-11.814841 -0.03828,-0.03943 -0.07455,-0.07786 -0.111828,-0.117291 L 54.947119,50.426359 50.007556,45.436074 C 49.413156,44.829907 48.812711,44.209941 48.197155,43.570262 42.064762,37.210926 35.113306,30.000986 25.466902,30.000986 13.629278,30 4,39.420727 4,51 c 0,11.579273 9.629278,21 21.464887,21 9.434838,0 16.632114,-6.96846 22.474359,-13.102084 l -5.61859,-5.669389 c -5.224674,5.503802 -10.648824,10.88637 -16.855769,10.88637 -7.391715,0 -13.405228,-5.883272 -13.405228,-13.114897 0,-7.231625 6.013513,-13.114897 13.405228,-13.114897 6.169669,0 11.607924,5.640805 16.867859,11.095325 0.196454,0.203041 0.398953,0.40904 0.596414,0.615038 l 1.30768,1.318784 -0.02216,0.0207 1.386261,1.355252 4.394529,4.434385 c 0.296193,0.311461 0.583318,0.611095 0.886563,0.931427 6.047767,6.389891 13.573473,14.343002 23.652077,14.343002 11.835605,0 21.46589,-9.420726 21.46589,-21 C 96,39.419741 86.369715,30 74.534106,30 Z"
     id="path4249"
     style="fill:#ffffff;fill-opacity:1"
     inkscape:connector-curvature="0" /></svg>