<?xml version="1.0" encoding="UTF-8" standalone="no"?>
<svg
   xmlns:dc="http://purl.org/dc/elements/1.1/"
   xmlns:cc="http://creativecommons.org/ns#"
   xmlns:rdf="http://www.w3.org/1999/02/22-rdf-syntax-ns#"
   xmlns:svg="http://www.w3.org/2000/svg"
   xmlns="http://www.w3.org/2000/svg"
   xmlns:sodipodi="http://sodipodi.sourceforge.net/DTD/sodipodi-0.dtd"
   xmlns:inkscape="http://www.inkscape.org/namespaces/inkscape"
   id="Layer_1"
   version="1.1"
   viewBox="0 0 128 128"
   xml:space="preserve"
   inkscape:version="0.91 r13725"
   sodipodi:docname="ol_padlock_unlocked.svg"
   width="128"
   height="128"><metadata
     id="metadata13"><rdf:RDF><cc:Work
         rdf:about=""><dc:format>image/svg+xml</dc:format><dc:type
           rdf:resource="http://purl.org/dc/dcmitype/StillImage" /><dc:title /></cc:Work></rdf:RDF></metadata><defs
     id="defs11" /><sodipodi:namedview
     pagecolor="#ffffff"
     bordercolor="#666666"
     borderopacity="1"
     objecttolerance="10"
     gridtolerance="10"
     guidetolerance="10"
     inkscape:pageopacity="0"
     inkscape:pageshadow="2"
     inkscape:window-width="2560"
     inkscape:window-height="1311"
     id="namedview9"
     showgrid="false"
     inkscape:zoom="4.9166667"
     inkscape:cx="10.95983"
     inkscape:cy="55.932203"
     inkscape:window-x="1920"
     inkscape:window-y="27"
     inkscape:window-maximized="1"
     inkscape:current-layer="Layer_1" /><path
     style="fill:#ffffff;fill-opacity:1;stroke:#ffffff;stroke-width:3.938;stroke-miterlimit:4;stroke-dasharray:none;stroke-opacity:1"
     inkscape:connector-curvature="0"
     id="path5"
     d="m 104.961,51.803981 -68.755964,0 0,-19.890717 C 36.205036,18.222253 48.785915,7.3727702 64,7.3727702 c 15.214085,0 25.794964,8.8494828 25.794964,22.5404938 l 0,0.716346 c 0,1.549926 1.170315,2.583211 2.925786,2.583211 1.755471,0 2.925786,-1.033285 2.925786,-2.583211 l 0,-0.716346 C 95.646536,13.380721 82.43245,2.2063503 64,2.2063503 c -18.432451,0 -33.646536,13.1743707 -33.646536,29.7069137 l 0,19.890717 -7.314465,0 c -4.973835,0 -9.069935,3.616493 -9.069935,7.74963 l 0,58.638859 c 0.292579,4.39147 4.388679,8.00796 9.069935,8.00796 l 81.922001,0 c 4.97383,0 9.06994,-3.61649 9.06994,-8.00796 l 0,-58.380537 c -0.29258,-4.391459 -4.38869,-8.007952 -9.06994,-8.007952 z m 2.92579,66.388489 c 0,1.54993 -1.4629,2.84154 -3.21837,2.84154 l -81.629421,0 c -1.462893,0 -2.925785,-1.29161 -2.925785,-2.84154 l 0,-58.380537 c 0,-1.549927 1.462892,-2.583211 3.218364,-2.583211 l 81.629422,0 c 1.75547,0 3.21837,1.291605 3.21837,2.583211 l 0,58.380537 z"
     sodipodi:nodetypes="scssssssssscsscssscscssssssscc" /><path
     style="fill:#ffffff;fill-opacity:1;stroke:#ffffff;stroke-width:4;stroke-opacity:1;stroke-miterlimit:4;stroke-dasharray:none"
     inkscape:connector-curvature="0"
     id="path7"
     d="m 64,76.266666 c -5.847953,0 -10.526316,4.266667 -10.526316,9.6 0,4.266667 3.216374,8 7.602339,9.333334 l 0,5.33333 c 0,1.6 1.169591,2.66667 2.923977,2.66667 1.754386,0 2.923977,-1.06667 2.923977,-2.66667 l 0,-5.33333 c 4.385964,-1.066667 7.602339,-4.8 7.602339,-9.333334 0,-5.333333 -4.678363,-9.6 -10.526316,-9.6 z m 0,13.866667 c -2.631579,0 -4.678363,-1.866667 -4.678363,-4.266667 0,-2.4 2.046784,-4.266667 4.678363,-4.266667 2.631579,0 4.678362,1.866667 4.678362,4.266667 0,2.4 -2.046783,4.266667 -4.678362,4.266667 z" /></svg>