<?xml version="1.0" encoding="UTF-8" standalone="no"?>
<svg
   xmlns:dc="http://purl.org/dc/elements/1.1/"
   xmlns:cc="http://creativecommons.org/ns#"
   xmlns:rdf="http://www.w3.org/1999/02/22-rdf-syntax-ns#"
   xmlns:svg="http://www.w3.org/2000/svg"
   xmlns="http://www.w3.org/2000/svg"
   xmlns:sodipodi="http://sodipodi.sourceforge.net/DTD/sodipodi-0.dtd"
   xmlns:inkscape="http://www.inkscape.org/namespaces/inkscape"
   enable-background="new 0 0 16 16"
   id="Layer_1"
   version="1.0"
   viewBox="0 0 128 128"
   xml:space="preserve"
   inkscape:version="0.91 r13725"
   sodipodi:docname="ol_rename.svg"
   width="128"
   height="128"><metadata
     id="metadata15"><rdf:RDF><cc:Work
         rdf:about=""><dc:format>image/svg+xml</dc:format><dc:type
           rdf:resource="http://purl.org/dc/dcmitype/StillImage" /><dc:title /></cc:Work></rdf:RDF></metadata><defs
     id="defs13" /><sodipodi:namedview
     pagecolor="#ffffff"
     bordercolor="#666666"
     borderopacity="1"
     objecttolerance="10"
     gridtolerance="10"
     guidetolerance="10"
     inkscape:pageopacity="0"
     inkscape:pageshadow="2"
     inkscape:window-width="2560"
     inkscape:window-height="1311"
     id="namedview11"
     showgrid="false"
     inkscape:zoom="3.6875001"
     inkscape:cx="-40.271185"
     inkscape:cy="54.101694"
     inkscape:window-x="1920"
     inkscape:window-y="27"
     inkscape:window-maximized="1"
     inkscape:current-layer="Layer_1" /><g
     id="g3"
     transform="scale(8,8)"
     style="fill:#ffffff;fill-opacity:1"><path
       d="m 15.5,15 -1,0 C 13.1,15 12,13.9 12,12.5 l 0,-9 C 12,2.1 13.1,1 14.5,1 l 1,0 C 15.8,1 16,0.8 16,0.5 16,0.2 15.8,0 15.5,0 l -1,0 C 13.2,0 12.1,0.7 11.5,1.7 10.9,0.7 9.8,0 8.5,0 l -1,0 C 7.2,0 7,0.2 7,0.5 7,0.8 7.2,1 7.5,1 l 1,0 C 9.9,1 11,2.1 11,3.5 l 0,9 C 11,13.9 9.9,15 8.5,15 l -1,0 C 7.2,15 7,15.2 7,15.5 7,15.8 7.2,16 7.5,16 l 1,0 c 1.3,0 2.4,-0.7 3,-1.7 0.6,1 1.7,1.7 3,1.7 l 1,0 C 15.8,16 16,15.8 16,15.5 16,15.2 15.8,15 15.5,15 Z"
       id="path5"
       inkscape:connector-curvature="0"
       style="fill:#ffffff;fill-opacity:1" /><path
       d="m 14.5,5 -1,0 C 13.2,5 13,5.2 13,5.5 13,5.8 13.2,6 13.5,6 l 1,0 C 14.8,6 15,6.2 15,6.5 l 0,3 C 15,9.8 14.8,10 14.5,10 l -1,0 c -0.3,0 -0.5,0.2 -0.5,0.5 0,0.3 0.2,0.5 0.5,0.5 l 1,0 C 15.3,11 16,10.3 16,9.5 l 0,-3 C 16,5.7 15.3,5 14.5,5 Z"
       id="path7"
       inkscape:connector-curvature="0"
       style="fill:#ffffff;fill-opacity:1" /><path
       d="M 10,10.5 C 10,10.2 9.8,10 9.5,10 l -8,0 C 1.2,10 1,9.8 1,9.5 l 0,-3 C 1,6.2 1.2,6 1.5,6 l 8,0 C 9.8,6 10,5.8 10,5.5 10,5.2 9.8,5 9.5,5 l -8,0 C 0.7,5 0,5.7 0,6.5 l 0,3 C 0,10.3 0.7,11 1.5,11 l 8,0 C 9.8,11 10,10.8 10,10.5 Z"
       id="path9"
       inkscape:connector-curvature="0"
       style="fill:#ffffff;fill-opacity:1" /></g></svg>