<svg width="48" height="48" xmlns="http://www.w3.org/2000/svg">

 <g>
  <title>background</title>
  <rect fill="none" id="canvas_background" height="402" width="582" y="-1" x="-1"/>
 </g>
 <g>
  <title>Layer 1</title>
  <path id="svg_2" fill="#FFCC66" d="m13.00837,20.55578l0,15.21002c0,1.67999 1.37,3.03998 3.04999,3.03998l15.89001,0c1.67999,0 3.04004,-1.35999 3.04004,-3.03998l0,-15.21002l-21.98004,0zm11.96003,8.72004l0,2.21997c0,0.54004 -0.44,0.97003 -0.97003,0.97003c-0.52997,0 -0.95996,-0.42999 -0.95996,-0.97003l0,-2.21997c-0.45001,-0.29999 -0.75,-0.82001 -0.75,-1.40002c0,-0.95001 0.76996,-1.70996 1.70996,-1.70996s1.71002,0.75995 1.71002,1.70996c0,0.58001 -0.29999,1.10003 -0.73999,1.40002z"/>
  <path id="svg_3" fill="#F2F2F2" d="m31.7184,16.90582l0,3.64996l-2.06,-0.00995l0,-3.64001c0,-3.10999 -2.53998,-5.65003 -5.66003,-5.65003c-3.12,0 -5.64996,2.54004 -5.64996,5.65003l0,3.53998l5.65997,0.06l-7.71997,-0.06l0,-3.53998c0,-4.25 3.45996,-7.71002 7.70996,-7.71002c4.26,0 7.72003,3.46002 7.72003,7.71002z"/>
  <path id="svg_4" fill="#ff8e8e" stroke="#303030" stroke-width="0.7" stroke-linecap="round" stroke-linejoin="round" stroke-miterlimit="10" d="m34.98747,20.55533l-21.97494,0l0,15.20801c0,1.68029 1.36215,3.04244 3.04244,3.04244l15.89005,0c1.68029,0 3.04244,-1.36215 3.04244,-3.04244l0,-15.20801l0.00001,0z"/>
  <path id="svg_5" fill="none" stroke="#303030" stroke-width="0.7" stroke-linecap="round" stroke-linejoin="round" stroke-miterlimit="10" d="m29.65458,20.55533l0,-3.64635c0,-3.11743 -2.53675,-5.65362 -5.65474,-5.65362c-3.11743,0 -5.65418,2.53619 -5.65418,5.65362l0,3.54126"/>
  <path id="svg_6" fill="none" stroke="#303030" stroke-width="0.7" stroke-linecap="round" stroke-linejoin="round" stroke-miterlimit="10" d="m16.28564,20.45024l0,-3.54126c0,-4.25419 3.46058,-7.71476 7.7142,-7.71476c4.25419,0 7.71477,3.46058 7.71477,7.71476l0,3.64635"/>
  <polygon id="svg_7" fill="#303030" points="29.6584,20.54584 29.6584,20.55578 24.00837,20.5058   "/>
  <path id="svg_8" fill="none" stroke="#303030" stroke-width="0.7" stroke-linecap="round" stroke-linejoin="round" stroke-miterlimit="10" d="m25.7079,27.87174c0,-0.94321 -0.76464,-1.70786 -1.70791,-1.70786c-0.94321,0 -1.70786,0.76464 -1.70786,1.70786c0,0.58532 0.29517,1.10112 0.74405,1.40882l0,2.21863c0,0.53231 0.43156,0.96387 0.96392,0.96387s0.96392,-0.43156 0.96392,-0.96387l0,-2.21881c0.44877,-0.30775 0.74388,-0.82338 0.74388,-1.40864z"/>
 </g>
</svg>