<?xml version="1.0" ?><!DOCTYPE svg  PUBLIC '-//W3C//DTD SVG 1.1//EN'  'http://www.w3.org/Graphics/SVG/1.1/DTD/svg11.dtd'><svg height="512px" style="enable-background:new 0 0 512 512;" version="1.1" viewBox="0 0 512 512" width="512px" xml:space="preserve" xmlns="http://www.w3.org/2000/svg" xmlns:xlink="http://www.w3.org/1999/xlink"><g id="save_diskette_floppy_storage_disk"><g><g><polygon points="429.13,0 0,0 0,512 512,512 512,82.952    " style="fill:#630344;"/><path d="M79.55,19.921h325.325v167.372c0,3.121-2.541,5.662-5.664,5.662H85.212     c-3.122,0-5.662-2.541-5.662-5.662V19.921z" style="fill:#990468;"/><rect height="248.767" style="fill:#F1D900;" width="351.745" x="80.127" y="243.313"/><path d="M492.078,492.079h-50.246V233.353H70.168v258.727H19.921V19.921H69.59v167.372     c0,8.614,7.008,15.623,15.622,15.623h313.999c8.615,0,15.625-7.009,15.625-15.623V19.921h6.037l71.205,71.276V492.079z" style="fill:#F1AD00;"/></g><rect height="121.843" style="fill:#630344;" width="44.258" x="334.619" y="43.88"/><rect height="24.633" style="fill:#630344;" width="24.631" x="32.038" y="449.033"/><rect height="24.633" style="fill:#630344;" width="24.631" x="455.331" y="449.033"/><rect height="9.96" style="fill:#630344;" width="252.996" x="129.502" y="299.493"/><rect height="9.961" style="fill:#630344;" width="252.996" x="129.502" y="366.229"/><rect height="9.96" style="fill:#630344;" width="252.996" x="129.502" y="432.965"/></g></g><g id="Capa_1"/></svg>