<?xml version="1.0" ?><svg height="60px" id="Layer_1" style="enable-background:new 0 0 60 60;" version="1.1" viewBox="0 0 60 60" width="60px" xml:space="preserve" xmlns="http://www.w3.org/2000/svg" xmlns:xlink="http://www.w3.org/1999/xlink"><style type="text/css">
	.st0{fill:#D9E3E6;}
	.st1{fill:#FFBE4D;}
	.st2{fill:#FA4E70;}
	.st3{fill:#3CC2A7;}
	.st4{fill:#B3C3C7;}
	.st5{fill:#5B6875;}
	.st6{fill:#FFFFFF;}
	.st7{fill:#C5D7DB;}
	.st8{fill:#6ED4BF;}
	.st9{fill:#6C7FE0;}
	.st10{fill:#FFD48A;}
	.st11{fill:#E5EFF2;}
	.st12{fill:#FFE063;}
	.st13{fill:#7BA3E8;}
	.st14{fill:#2AA188;}
	.st15{fill:#4D5770;}
	.st16{fill:#CCD6D9;}
	.st17{fill:none;}
	.st18{fill:#E4EBED;}
	.st19{fill:#6ED49A;}
	.st20{fill:#A3B1B5;}
	.st21{fill:#E0EAED;}
	.st22{fill:#B0C4C4;}
	.st23{fill:#738394;}
	.st24{fill:#C77D48;}
	.st25{fill:#ABB8BF;}
	.st26{fill:#7D5B31;}
	.st27{fill:#FF5642;}
	.st28{fill:#8FA3B8;}
	.st29{fill:#C7D3D6;}
	.st30{fill:#32467A;}
	.st31{fill:#414154;}
	.st32{fill:none;stroke:#505070;stroke-width:2;stroke-linecap:round;stroke-linejoin:round;stroke-miterlimit:10;}
	.st33{fill:#A0ACB3;}
	.st34{fill-rule:evenodd;clip-rule:evenodd;fill:#3CC2A7;}
	.st35{fill:#F08F1A;}
	.st36{fill:#4D5863;}
	.st37{fill:#FFE79E;}
	.st38{fill:#BDC7C9;}
</style><path class="st1" d="M52.0000153,22v-8c0-1.1046-0.8954048-2-2-2h-22c-1.1046028,0-2-0.8954-2-2V8c0-1.1046-0.8954029-2-2-2h-14  c-1.1046028,0-2,0.8954-2,2v2c0,1.1046-0.8954034,2-2.0000005,2h-2c-1.1046026,0-2,0.8954-2,2v35.4846992"/><path class="st10" d="M50.8761101,52H4.0435119c-1.3419001,0-2.3192-1.2456017-1.9734001-2.5153008l7.0802999-26  C9.3888121,22.6091995,10.1986113,22,11.1239119,22h46.8325958c1.3418999,0,2.3192024,1.2455997,1.9734001,2.5153008l-7.0802994,26  C52.6112099,51.3908005,51.8014107,52,50.8761101,52z"/></svg>