<?xml version="1.0" encoding="UTF-8" standalone="no"?>
<svg
   xmlns:dc="http://purl.org/dc/elements/1.1/"
   xmlns:cc="http://creativecommons.org/ns#"
   xmlns:rdf="http://www.w3.org/1999/02/22-rdf-syntax-ns#"
   xmlns:svg="http://www.w3.org/2000/svg"
   xmlns="http://www.w3.org/2000/svg"
   xmlns:sodipodi="http://sodipodi.sourceforge.net/DTD/sodipodi-0.dtd"
   xmlns:inkscape="http://www.inkscape.org/namespaces/inkscape"
   id="Layer_1"
   version="1.1"
   viewBox="0 0 128 128"
   xml:space="preserve"
   inkscape:version="0.91 r13725"
   sodipodi:docname="ol_padlock_unlocked.svg"
   width="128"
   height="128"><metadata
     id="metadata13"><rdf:RDF><cc:Work
         rdf:about=""><dc:format>image/svg+xml</dc:format><dc:type
           rdf:resource="http://purl.org/dc/dcmitype/StillImage" /><dc:title></dc:title></cc:Work></rdf:RDF></metadata><defs
     id="defs11" /><sodipodi:namedview
     pagecolor="#ffffff"
     bordercolor="#666666"
     borderopacity="1"
     objecttolerance="10"
     gridtolerance="10"
     guidetolerance="10"
     inkscape:pageopacity="0"
     inkscape:pageshadow="2"
     inkscape:window-width="2560"
     inkscape:window-height="1311"
     id="namedview9"
     showgrid="false"
     inkscape:zoom="6.9532167"
     inkscape:cx="-6.6101695"
     inkscape:cy="55.728813"
     inkscape:window-x="1920"
     inkscape:window-y="27"
     inkscape:window-maximized="1"
     inkscape:current-layer="Layer_1" /><path
     style="fill:#000000;fill-opacity:1;stroke:#000000;stroke-width:3.98886824;stroke-miterlimit:4;stroke-dasharray:none;stroke-opacity:1"
     inkscape:connector-curvature="0"
     id="path5"
     d="m 104.68821,51.871159 -68.203668,0 0.09017,-19.918098 c 0.06207,-13.70986 12.59107,-24.5742763 27.682948,-24.5742763 15.091877,0 27.522516,10.8644163 27.460453,24.5742763 l -0.03046,6.725592 c -0.007,1.552059 1.149202,2.586767 2.890573,2.586767 1.741371,0 2.906969,-1.034708 2.913995,-2.586767 l 0.03046,-6.725592 C 97.597617,15.397759 82.565462,2.2052527 64.281073,2.2052527 c -18.284391,0 -33.435989,13.1925063 -33.510933,29.7478083 l -0.09017,19.918098 -7.255711,0 c -4.933883,0 -9.013475,3.621471 -9.032211,7.760297 L 14.12623,118.35105 c 0.270321,4.39751 4.317124,8.01897 8.960778,8.01897 l 81.263962,0 c 4.93389,0 9.01347,-3.62146 9.03338,-8.01897 l 0.26464,-58.460917 c -0.27031,-4.397503 -4.31713,-8.018974 -8.96078,-8.018974 z m 2.60135,66.479891 c -0.007,1.55205 -1.46403,2.84545 -3.20541,2.84545 l -80.973717,0 c -1.451141,0 -2.896429,-1.2934 -2.889402,-2.84545 l 0.264647,-58.460917 c 0.007,-1.55206 1.462852,-2.586767 3.204222,-2.586767 l 80.97372,0 c 1.74139,0 3.18667,1.293384 3.18082,2.586767 l -0.26465,58.460917 z" /><path
     style="fill:#000000;fill-opacity:1;stroke:none;stroke-width:0.35812008;stroke-miterlimit:4;stroke-dasharray:none;stroke-opacity:1"
     inkscape:connector-curvature="0"
     id="path7"
     d="m 64,76.266666 c -5.847953,0 -10.526316,4.266667 -10.526316,9.6 0,4.266667 3.216374,8 7.602339,9.333334 l 0,5.33333 c 0,1.6 1.169591,2.66667 2.923977,2.66667 1.754386,0 2.923977,-1.06667 2.923977,-2.66667 l 0,-5.33333 c 4.385964,-1.066667 7.602339,-4.8 7.602339,-9.333334 0,-5.333333 -4.678363,-9.6 -10.526316,-9.6 z m 0,13.866667 c -2.631579,0 -4.678363,-1.866667 -4.678363,-4.266667 0,-2.4 2.046784,-4.266667 4.678363,-4.266667 2.631579,0 4.678362,1.866667 4.678362,4.266667 0,2.4 -2.046783,4.266667 -4.678362,4.266667 z" /></svg>