<?xml version="1.0" ?><svg enable-background="new 0 0 20 20" height="512" id="Layer_1" version="1.1" viewBox="0 0 512 512" width="512" xml:space="preserve" xmlns="http://www.w3.org/2000/svg" xmlns:cc="http://creativecommons.org/ns#" xmlns:dc="http://purl.org/dc/elements/1.1/" xmlns:inkscape="http://www.inkscape.org/namespaces/inkscape" xmlns:rdf="http://www.w3.org/1999/02/22-rdf-syntax-ns#" xmlns:sodipodi="http://sodipodi.sourceforge.net/DTD/sodipodi-0.dtd" xmlns:svg="http://www.w3.org/2000/svg"><defs id="defs23"/><path d="m 457.34346,70.0416 h -103.936 -9.0368 V 10.84587 C 344.37066,4.85547 339.52373,0 333.5248,0 H 178.06453 C 172.0656,0 167.21866,4.84693 167.21866,10.84587 V 70.0416 H 54.24586 C 48.25546,70.0416 43.4,74.89707 43.4,80.88747 v 28.02346 c 0,5.99894 4.85546,10.84587 10.84586,10.84587 h 403.08907 c 6.016,0 10.84586,-4.84693 10.84586,-10.84587 V 80.88747 c 0.009,-5.9904 -4.82986,-10.84587 -10.83733,-10.84587 z M 322.67893,21.69173 V 70.0416 H 197.04266 188.9104 V 21.69173 h 133.76853 z" id="path5" style="fill:#7b7a7a;fill-opacity:1"/><path d="m 75.02453,134.22933 v 366.9248 C 75.02453,507.15307 79.87146,512 85.8704,512 h 339.85706 c 5.9648,0 10.83734,-4.84693 10.83734,-10.84587 V 134.22933 H 75.02453 z M 135.944,469.17973 H 118.95413 V 177.04107 H 135.944 v 292.13866 z m 64.18773,0 H 183.14186 V 177.04107 h 16.98987 v 292.13866 z m 64.16213,0 H 247.304 V 177.04107 h 16.98986 v 292.13866 z m 64.16214,0 H 311.46613 V 177.04107 H 328.456 v 292.13866 z m 64.1792,0 H 375.64533 V 177.04107 h 16.98987 v 292.13866 z" id="path7" style="fill:#3975b1;fill-opacity:1"/></svg>